<svg xmlns="http://www.w3.org/2000/svg" xmlns:xlink="http://www.w3.org/1999/xlink" width="799.741" height="953.811" viewBox="0 0 799.741 953.811">
  <defs>
    <style>
      .cls-1 {
        fill: url(#pattern);
      }
    </style>
    <pattern id="pattern" width="1" height="1" viewBox="296.312 0 799.741 953.811">
      <image preserveAspectRatio="xMidYMid slice" width="1430.717" height="953.811" xlink:href="../Downloads/thought-catalog-Jnxtlv_Fo14-unsplash.jpg"/>
    </pattern>
  </defs>
  <path id="Union_2" data-name="Union 2" class="cls-1" d="M-2727.422-3181.611a3.39,3.39,0,0,0-1.048-.043,2.094,2.094,0,0,1-1.59-.321,8.683,8.683,0,0,0-2.868-1.942c2-2.745-4.147-2.851-5.5-3.089.835-2.138-.037-4.049-2.583-3.579-1.727.32-1.1,2.365-1.056,3.579-3.142-1.221-.656-4.952-.352-6.857.264-1.659-.641-3.369-1.471-4.73-.479-.784-4.392-6.2-1.8-3.7-1.107-1.11-.625-2.336-2.276-2.324-1.4.015.137-3.473.288-3.958,3.562,2.09,4.476-2,4.541-4.74a22.523,22.523,0,0,0-3.611-12.672c-3.614-5.985-6.813-11.911-8.887-18.634-.968-3.139-1.591-6.378-2.755-9.459s-3.953-5.817-4.256-9.169a2.005,2.005,0,0,1-2.018-.877c-1.99-2.5-4.65-4.5-6.426-7.174a69.7,69.7,0,0,1-4.11-7.488,14.234,14.234,0,0,1-.974-4.269c-.243-1.506-1.269-2.292-1.565-3.665-.542-2.519.582-3.443-1.282-5.764-.745-.926-.5-1.523-.47-2.708.044-1.911-.619-3.567-.826-5.432a22.6,22.6,0,0,0-.412-3.973c-.537-1.837.382-3.615.024-5.452-.616-3.168-2.122-6.059-3.272-9.047-1.3-3.373-.327-6.221-.667-9.636a35.942,35.942,0,0,1-.357-6.416c.1-.561,1.5-6.189.888-6.053a16.666,16.666,0,0,0-3.4-8.432,45.143,45.143,0,0,1-2.887-4.117c-.746-1.354-.9-3.011-1.877-4.245-4.5-5.685-5.47-12.586-8.8-18.747-3.05-5.647-4.076-13.4-9.033-17.845-5.336-4.776-5.96-11.752-5.5-18.491h0a7.525,7.525,0,0,0,2.086-.806,9.181,9.181,0,0,1-2.23.772h0c-.166-5.364,1.285-10.776.679-16.158-.1-.832-.708-1.632-.362-2.484.494-1.217,1.835-1.924,2.37-3.189a11.99,11.99,0,0,0,.62-3.188c.13-.969,1.408-2.155,1.088-2.976-.684-1.751,1.708-6.463,2.09-8.43.546-2.808-.054-5.858,1.52-8.321,1.047-1.643.384-5.076,1.593-6.137a22.734,22.734,0,0,0,4.038-4.923c1.155-2.169.445-5.6,3.959-5.924,2.473-.224,2.69-2.119,3.911-4.254,2.9-5.066,3.72-12.918,2.381-18.529a19.316,19.316,0,0,0-3.095-6.627c-1.52-2.281-1.569-4.053-2.405-6.438-.381-1.089-1.352-1.91-1.5-3.073-.18-1.423.031-2.741-.6-4.08-.936-1.987-2.791-4.556,0-5.981a2.671,2.671,0,0,0-1.208,2.323,12.6,12.6,0,0,1,2.156-3.154c.728-.716,1.9-.672,2.031-1.815a13.752,13.752,0,0,0-1.706-8.33c-1.608-2.934-2.45-6.008-3.7-9.1-.552-1.37-.51-2.893-.909-4.3-.593-2.1-2.532-3.511-3.611-5.337-.882-1.493-3.957-6.7-1.276-7.53a22.293,22.293,0,0,1,3.783-.554c1.765-.231,2.635-1.816,4.586-2q.806-.078,1.614-.135c-.686-.074-1.359-.171-2.016-.3a6.983,6.983,0,0,0-4.291.964c-2.36,1.12-4.381,2.242-5.985-1.847h0a2.039,2.039,0,0,1,.51-.281c-.7-.029-1.25-.468-1.26-1.514-.015-1.61.85-1.987.354-3.767-.363-1.308-2.354-3.509-.743-4.716-.368.07-.735.141-1.1.214q.119-.093.239-.2c-1.744.76-2.344-3.188-2.682-4.444-1.013-3.766-5.1-7.047-7.873-9.638.124-.375.241-.713.357-1.022a8,8,0,0,0-.489.994c-2.537-1.988-4.739-6.129-6.493-8.805-2.578-3.93-6.468-7.08-9.811-10.335.852-.525,1.443.082,2,.69.656.718,1.263,1.436,2.194.29-1.237.117-3.013-1.417-4.357-1.748-2.16-.534-3.728-5.51-5.109-7.27,1.392.127,1.895,1.653,3.2,1.988-1.181-1.91-1.4-1.458-3.094-2.448-.768-.448-.535-1.808-.721-2.483-.457-1.659-1.647-2.966-2.471-4.44,1.066.886,3.192,2.827,2.86,4.418a8.763,8.763,0,0,1,3.426-.549,5.771,5.771,0,0,1-1.544-1.773c-.248.875-.9,1.325-1.774.886.146-1.152,1.061-2.2.565-3.409-1.729,5.031-4.9-4.677-5.731-5.292a3.247,3.247,0,0,1-.658-3.407,3.407,3.407,0,0,0,.995,2.309c.244-2.5,1.732-.434,1.651.993.246-3.05,3.35-4.784,3.689-7.765.234-2.061-1.086-6.067.716-7.642a6.034,6.034,0,0,0,1.315,2.536c.339-1.653,2.767-.735,3.518.658-.184-1.312,1.119-1.852,2.2-1.882-2.675-.032-4.744-.645-6.293-3.039-.632-.981-2.688-2.229-.418-2.681.965-.193,2.271.3,2.308,1.443.819-1.827-.558-4.258-.034-6.206.289-1.068,1.594-.961,2.389-.531.055.03.109.057.163.082-.084-.168,0-.435.327-.838a4.838,4.838,0,0,0-2.375-.14c-1.343.114-2.736.228-3.252-.849-.8-1.658,2.377-4.414,3.089-5.721a1.5,1.5,0,0,0,1.208-.22c-2.412,1.169-.219-2.376.206-3.056,1.223-1.951.25-4.778,1.122-7.124a9.525,9.525,0,0,1,.178-4.458c.6-2.66,1.521-5.545.084-8.118-.635-1.137-2.718-3.011-.962-3.905-1.431.384-3.507-.829-2.047-2.283.847-.844,2.734-2.308.256-2.4a2.878,2.878,0,0,0,.765-1.871c-.531,1.29-1.086.992-1.788.7a2.441,2.441,0,0,0-1.072-.256c.467.624.8,1.07,0,.661a4.377,4.377,0,0,1-.214,1.76,1.254,1.254,0,0,1-1.207-1.76c-.874,1.591-3.374-.4-3.7-1.575-.51-1.851-.617-5.016-1.933-6.459-1.512,1.862-1.22-.33-2.2-.33a12.634,12.634,0,0,1,.337,2.2c-2.121.265-2.019-1-1.632-2.352l-.1.155a2.03,2.03,0,0,1-1.375-2.455c-1,.649-1.775-.342-2.2-1.1.971,3.618,1.879,4.438-2.324,5.048-1.662.241-7.132,1.333-5.6-2.077-.716,1.385-.75,1.755-2.416,1.651-1.847-.114-1.528-.591-3.319-1.76.839.613,1.854,3.773-.142,2.976-1.336-.533.642-3.742-1.723-2.536.66,1.328,1.229,2.586.657,4.073-1.095-.464-2.355-4.409-1.973-5.614-1.259,1.091.831,4.272.176,5.76-.911,2.075-.9-2.8-.848-3.228-.208.607-.539,3.941-.658.988a3.9,3.9,0,0,1-.765,2.531,4.555,4.555,0,0,0-.658-2.2c.472.945.433,2.469-1.017,2.34-2.614-.234-1.9.365-2.622-2.121.017,1.455-.678,2.79-1.305,2.79-.385,0-.745-.506-.9-1.8.026,2.206-.549.759-2.155-.027a8.48,8.48,0,0,1-3.458-3.826c-.756-1.413-1.7-2.955-1.3-4.6.268-1.1.413-2.11-1.129-1.672-.283-1.2-.157-1.866,1.066-2.113,2.372-.477.154-1.331,1.915-2.4-1.255.1-2.365,1.8-3.6,1.522-3.942-.892,1.452-2.27,2.392-2.4a1.485,1.485,0,0,0-2.2-.331c.033-.479.069-.955.107-1.433-.24,1.375-1.978,2.366-2.646.661-.6-1.544,1.25-2.226,2.095-3.082a7.978,7.978,0,0,0-2.646,1.873c-1.508-3.435-4.848-7.235-8.6-8.19a20.158,20.158,0,0,0-5.891-.588c-1.47.092-3.614.729-4.879-.356a5.512,5.512,0,0,0,4.848-2.092,3.569,3.569,0,0,0-1.724.5c-.867.426-1.689.852-2.68.052a2.293,2.293,0,0,0-.444,2.311,24.8,24.8,0,0,1-3.46.128,19.374,19.374,0,0,0-4.417.3c0,.017,0,.032.007.048a40.049,40.049,0,0,0-5.655.661c-2.334.465-4.677.89-7.035,1.21a2.9,2.9,0,0,1,1.27-.684,25.744,25.744,0,0,0-6.351,2.224.778.778,0,0,0-.021-.164c-.316.878-1.766,1.445-2.034,2.318-.442,1.442-1.438,2.666-3.166,2.471-.532-.061-.864-.745-1.143-1.454-.5.916-2.5,1.489-3.341,1.636-4.8.842-7.838,3.566-11.822,5.941-2.287,1.362-4.823,1.329-7.259,2.324-1.475.6-3.151.931-4.414,1.946a20.886,20.886,0,0,1-3.127,2.6,2.4,2.4,0,0,1-3.174-.538c-1.264-1.32-2.644-1.491-4.315-1.992-1.726-.518-3.122-.123-4.2-1.826q-.1.029-.2.06a10.29,10.29,0,0,1,.594-.971c-1.764,2.311-3.2-1-3.577-2.33-1,1.1-1.37,2.626-3.073,2.751a4.719,4.719,0,0,1-3.3-1.21c-.608,1.12-2.005.06-2.539-.441a2.558,2.558,0,0,1,1.072.075c.621.132,1.219.265,1.68-.405a4.06,4.06,0,0,0-1.1-.88c.289,1.393.032,1.08-.584.765a1.909,1.909,0,0,0-1.388-.215c.136.283-.526.373-1.4.393a1.994,1.994,0,0,1,1.061.708,73.648,73.648,0,0,0-8.955,1.2c-.673.119-2.069.407-2.5-.387-.608-1.117-3.56-.608-4.618.4a5.175,5.175,0,0,1,4.4.11c-3.75.43-7.746.225-11.28,1.75-3.053,1.316-5.793,3.791-9.206,4.137a16.671,16.671,0,0,0-6.724,3.369c-1.063,1.022-1.8.967-2.287.386q.047.1.1.208c-1.82.342-3.254-.4-4.724-1.238-1.937-1.1-4.294-1.259-6.058-2.708-3.209-2.634-7.385-3.834-10.361-6.787-3.322-3.3-5.966-7.232-9.349-10.465-1.063-1.016-8.907-3.732-7.061-5.494-1.427.143-3.185-2.056-4.4-2.641-2.442-1.174-2.23-2.536-4.071-4.293,1.037-.382,1.421-1.586,1.877-2.7-.77,1.374-1.331,2.61-1.874,2.61a.345.345,0,0,1-.1-.016,94.934,94.934,0,0,1-11.4-6.309c2.484.7.531-.468-.108-.88,1.061-.739,2.441-.744,3.41-1.651-1.915.238-4.648.528-3.572-1.9-.8,1.31-1.69.656-2.509,0-.5-.4-.98-.806-1.39-.749-.816.114-1.525-5.29-1.553-5.94-1.684.391-4.323-1.008-3.089-3.192a17.536,17.536,0,0,0,2.111,1.429c-1.518-.977,1.144-2.5,2.186-2.419-.44-.733-.238-.545-.107-1.431-.993,2-1.964.972-3.2.22a11.591,11.591,0,0,0-.444,1.211c-1.438-2.425-.237-3.355,1.865-3.853-.812-1.073-2.418-.978-2.968-2.312h0c.034-.032.07-.061.1-.089a1.609,1.609,0,0,1,1.554-1.787,3.584,3.584,0,0,0-.887-1.1c-.271.354-.528.721-.764,1.1a13.916,13.916,0,0,1-.108-2.2l-1.207.109c.345-1.361-1.641-1.62-.781-2.969-2.022,2.037-1.033-3.237-1.758-3.742.106.884-.387,1.206-1.208.989a10.594,10.594,0,0,0,.764-2.422c-.474,1.621-1.541,1.059-2.538.333-1.417-1.035-.68-1.766-1.209-3.192a2.406,2.406,0,0,0-1.529,1.54c-.168-2.773-6.035-2.537-4.405-6.054a5.809,5.809,0,0,1-1.544.332,26.279,26.279,0,0,0,1.972-5.174,6.861,6.861,0,0,0-1.528,2.313c-.182-1.79-.894-.872-1.437,0-.237-1.105-.4-3.343.749-4.117a8.534,8.534,0,0,1-3.508.481h0c1.525-1.9,1.374-5.009,3.305-6.628a3.346,3.346,0,0,1,.357-.26c-2.978.951-1.552,6.222-4.642,7.335-.745-2.866-1.148-3.243-3.731-4.512a11.622,11.622,0,0,1,.764-1.211c-1.055.789-1.129-.338-.572-1.466.611-1.238,1.982-2.475,3.646-1.177-.766-2.156-2.713-.717-3.839.222-1.082-1.93-1.274-3.23,1.1-4.072a2.627,2.627,0,0,1,2.589.59,3.159,3.159,0,0,0,2.029.73,1.516,1.516,0,0,1-.658-2.532,2.262,2.262,0,0,0-2.086.282,2.5,2.5,0,0,1-1.808.125,3.618,3.618,0,0,0-1.289-.077,5.906,5.906,0,0,0-2.584,1.651c-1.047.835-2.463.705-3.685.991.076-2,1.75-2.642,3.088-3.742a4.711,4.711,0,0,0-2.528.713,4.208,4.208,0,0,1-2.764.67c-3.671-.8-1.314-4.051.446-5.235a20.732,20.732,0,0,0-2.1.33,9.209,9.209,0,0,1-1.208,1.212c-1.363.057-2.122-1.551-3.414-1.761h0c.031-.021.062-.042.093-.061-.275-.529-1.189-1.526-.667-2.1,1.388-1.522,2.178-2.276,4.012-1.112,1.384.878,3.1-.485,4.575-.513a2.745,2.745,0,0,1,1.149.272,2.066,2.066,0,0,0,1.56.187,3.154,3.154,0,0,1,.354-.092c-1.265-.286-2.562-1.063-2.806-1.947-.811,3.486-7.427,1.286-6.8-.557-.506.994-.6,2.359-1.889,2.648a1.892,1.892,0,0,1,.766-2.2c-1.965.433-.873-2.519-.442-3.835a2.8,2.8,0,0,1,.25-.555,6.522,6.522,0,0,1-.8-3.975h0c2.165-1.695,1.861-1.6,2.945.788.457,1.007,1.453.7,2.467.389a3.081,3.081,0,0,1,1.981-.193c-2.065-1.342,5.877-2.135,6.37-2.413a15.325,15.325,0,0,0-6.786.836c-1.734.761-2.734,1.266-3.826-.742-.6-1.109-.083-1.541.7-1.686h-.051c.467-.944-.446-1.584-1.6-1.707.188-.913.779-1.281,1.653-.88a4.706,4.706,0,0,1,.214-2.752,3.94,3.94,0,0,1-2.968,2.422c-.4-1.225,3.168-4.367,4.405-4.512-1.348-.57-4.964,2.689-4.956,3.962,0-3.617-2.213-10.167-6.053-11.564a2.429,2.429,0,0,0-1.759.659c-.194-1.875,3.317-2.464,4.4-3.544a29.859,29.859,0,0,0,5.65-8.541c.588-1.277,3.161-12.2,6.078-12.5a2.052,2.052,0,0,0-.577.09c-1.427.522-3.106,5.115-3.675,6.318,0-7.951,5.236-14.437,5.992-22.232.454-4.693-.194-8.661-.784-13.256-.212-1.657-.158-3.474-1.211-4.879-.92-1.226-2.523-2.1-2.692-3.766a1.836,1.836,0,0,0,2.431-1.871,2.594,2.594,0,0,0-1.774,1.651c.3-1.6,1.589-2.717,2.29-4.119.453-.906-.2-2.355.326-2.962,2.394-2.74-1.27-7.6-2.172-10.309a6.619,6.619,0,0,0-.766,2.091c-2.428-1.837-1.848-5.637-4.3-7.484-.357,1.49-.881,2.937-1.228,4.432.014.153.031.3.051.431h0c-.036-.064-.071-.128-.1-.194-.012.053-.023.106-.034.159q-.025-.166-.045-.327c-1.434-3.224,1.077-8.359,1.608-11.544a17.2,17.2,0,0,1,2.171-6.352c1.467-2.391,4.151-2.4,5.051-5.384.462-1.531.433-3.89,1.957-4.8.864-.517.353-2.252,1.028-3.241,1.078-1.582,5.42-6.984,4.211-9.037a6.069,6.069,0,0,0-1.972,2.092c1.9-4.173,6.7-7.244,9.86-10.465,4.2-4.292,3.392-8.726,5.438-13.989,1.674-4.3,2.972-9.053,7.159-11.437,4.612-2.626,7.12-4.767,9.03-9.845.99-2.635,2.7-6.172,2.866-6.872l.619-.005-.518,0h0c.53-.582,2.247-3.307,2.851-3.527,2.165-.787,4.531-.887,6.769-1.38,4.152-.914,8.362-2.226,11.5-5.228,3.072-2.944,6.271-5.257,9.486-7.985,3.082-2.612,5.436-6.1,7.9-9.27,1.673-2.151,5.516-8.349,2.274-10.7-1.255-.907-2.137-.938-1.335-2.621s.713-3.342.8-5.164c.251-5.073,2.085-7.338,5.191-11.118,1.775-2.161,1.287-4.361,2.034-6.847.541-1.8,2.02-3.193,3.365-4.417,2.875-2.619,5.154-5.843,8.762-7.472,3.927-1.775,8.1-3.161,11.854-5.3,7.426-4.227,11-14.522,13.81-22.1.273-.732,1.259-4.468,2.391-4.354a7.148,7.148,0,0,0,3.971-1.055c1.494-.8,1.78,1.181,2.216,2.249a10.1,10.1,0,0,0,3.776,4.75c3.794,2.694,6.942,1.939,11.28,1.42a16.589,16.589,0,0,1,3.29.065c2.757.233,5.514.467,7.069-2.533a9.363,9.363,0,0,0,.536,2.763c.179.978,1.754,1.533.962.454a3.257,3.257,0,0,0,3.724.669,1.947,1.947,0,0,1,2.4.612c-.028-.06-.053-.119-.076-.181,3.662-.01,5.228-.9,8.34-2.488,1.355-.692,2.208-.695,3.026-2.121a6.644,6.644,0,0,1,2.613-3.044c.758-.407,2.228-1.586,3.029-.955,1.04.822,2.352-.6,3.043-1.238.758-.692,1.635-.357,2.533-.022,1.231.458,2.5.918,3.564-1.262,2.461-5.055,10.941-7.243,15.907-7.814,3.536-.407,7.108-1.379,10.672-1.14a5.284,5.284,0,0,0,3.085-1.1c1.241-.773,2.4-1.547,3.709-.806,1,.567.775.25,1.158-.382.084-.137,4.07-.08,4.663-.315,2.593-1.028,5.2-.989,7.883-.95.879.012,1.765.025,2.66,0,3.018-.083,3.735.542,6.032,2.274,2.935,2.212,3.953-1.06,6.5-1.372.818-.1,5.9-.319,5.617-1.823-.5-2.706,3.195-1.039,4.074-.449,1.837,1.23,4.6,1.852,6.483.348,1.034-.827.36-1.9,2.328-1.413,1.4.349,2.495,1.376,4.015,1.3-1.288,2.126,1.906,1.382,2.915,1.119,2.014-.524,4.19-.034,6.124-.68,0,.092.006.182,0,.271a.9.9,0,0,1,.6-.536c.99-.283,1.609,0,2.4-.834a11.775,11.775,0,0,1,5.891-3.3c1.115-.318,2.645-1.155,3.832-.682,1.409.564,0,1.246.158,2.307,1.173,0,1.451-.584.765-1.541,2.152.468,2.769.141,3.639,2.092.384.857-.81.939.349,1.755a1.472,1.472,0,0,1,.2,2.426c.029-.031.223.161.513.354a1.53,1.53,0,0,0,1.417.272,13.953,13.953,0,0,0,3.4-2.449c.406-.342,1.817-1.857,2.476-1.558,1.577.717,1.367,2.271.653,3.564-1.371,2.48-6.056,4.861-6.214,7.682a6.491,6.491,0,0,0,3.051,5.7c2.9,1.562,2.8,1.635,3.492,4.958.868,4.185-2.058,8.535-5.273,11.075-3.2,2.524-8.09,3.946-4.918,8.845a6.921,6.921,0,0,0,2.814,2.635,2.345,2.345,0,0,0,1.821.071,2.974,2.974,0,0,1,1.26-.127c.4.054.655,2.016.9,2.431.327.551.975-.089,1.645-.728.556-.531,1.127-1.062,1.541-.91,1.248.455.405,1.468.78,2.312.522,1.172,2.319,2.235.444,2.421a2.536,2.536,0,0,0,1.972.494c.8-.007,1.609-.015,2.085.612a1.117,1.117,0,0,1,.182.425q.014-.15.029-.3c1.978,1.375,4.631,2.071,6.755,3.376a11.437,11.437,0,0,0,7.354,1.552c2.624-.288,4.556-1.949,7.255-.974,2.4.87,4.951.96,7.29,1.956,2.083.889,3.764,2.492,5.865,3.314,1.839.719,4.321-.034,5.96,1.1,1.931,1.334,2.293,3.625,2.664,5.767a10.838,10.838,0,0,0,3.69,6.771c3.862,3.326,8.631,2.547,13.276,3.389,4.662.847,11.3,2.964,15.034,5.987,2.986,2.419,5.747,6.5,10.015,6.118,4.933-.445,10.206-4.79,11.309-9.741.51-2.285-1.036-4.063-1.737-6.122-.774-2.27-1.339-4.88-.561-7.229,1.428-4.311,8.529-9.657,13.03-9.809,2.331-.078,3.692-1.763,5.849-1.929a21.652,21.652,0,0,1,6.692.318,55.9,55.9,0,0,1,7.082,2.759c2.823,1.105,2.076,1.489,2.215,3.959.11,2,3.343,2.424,4.785,2.531,2.8.211,4.609,1.478,7.195,2.227a12.907,12.907,0,0,0,4.279.263,15.521,15.521,0,0,1,3.59.1c1.4.255,3.479,2.919,3.237,4.512l.063-.052c.116,2.8,3.379,1.8,5.07,1.292,3.091-.918,5.624.105,8.694.414a62.094,62.094,0,0,1,9.838,1.951c1.375.366,1.593,1.862,2.99,2.293a7.689,7.689,0,0,0,3.414.1c.825-.088,1.208,1.2,2.139,1.394a29.61,29.61,0,0,0,3.091.318c3.307.327,5.516,2.4,8.619,2.92,3,.5,5.868-1.518,8.021-3.353,1.116-.951,2.156-1.984,3.179-3.034.876.683,1.537,1.386,2.645,1.21-.633-.317-.495-.5-1.33-.44a4.642,4.642,0,0,0,2.431-2.862c1.138.68,2.234.205,3.339-.27a5.589,5.589,0,0,1,2.167-.608,10.882,10.882,0,0,0-3.424,2.311c.332-.2,7.92-2.489,4.3-2.752,1.435-.475,2.6.184,3.768.842a5.108,5.108,0,0,0,3.229.974c1.229-.174,2.389-1.389,3.693-.934,1.073.373,1.645,1.792,2.507,2.585-.98-.829-2.006-2.169-3.286-2.255.425,1.14-1.148,3.3.709,3.74,2.019.482,1.074.981,2.38,2.2,0-.45,3.6-1.969.994-3.192,2.774.646,3.7,3.2,6.95,2.919,1.055-.092,4.171-2.039,3.618.273,2.017-1.281,4.28-.533,6.447-1.186a14.232,14.232,0,0,0,5.35-2.649l9.3,24.533c-2.351,2.988-1.825,8.515-3.321,12.055a11.754,11.754,0,0,0-.815,5.547c.02,1.871-2.359,3.681-1.774,5.5-1.136-1.051-2.656-1.525-3.91-2.4a16.358,16.358,0,0,1-3.8-4.308c-1.381-1.99-5.419-3.289-4.833-6.278.589-3.011-2.316-5.1-3.8-7.221a28.9,28.9,0,0,1-4.35-9.838c-1.38,1.482-2.848,4.713-1.408,6.4,2.461,2.9,2.2,6.453,4.267,9.445,1.787,2.593,3.6,5.767,5.83,7.979.989.978,2.116,1.821,3.017,2.886.471.558,2.411,3.756.072,2.012,1.894,1.477.327,3.356,1.528,4.573a15.513,15.513,0,0,1,3.312,5.421,17.52,17.52,0,0,0,1.686,2.788c.45.7-.443,1.582-.483,2.262-.054.91,1.432,2.26,1.837,3.044.931,1.794,1.946,3.547,2.887,5.337,3.088,5.886,6.205,11.667,9.127,17.642,1.145,2.337,2.825,4.012,4.261,6.112,1.337,1.956,3.679,2.56,4.919,4.55a6.871,6.871,0,0,1-3.409-.661c-.772,3.194-.4,8.069,1.23,9.951a1.64,1.64,0,0,1,.339,1.44c.112-.129.213-.241.3-.331.781,3.385,3.118,4.568,5.978,6.058,2.559,1.333,4.087,4.489,6.534,6.2,3.248,2.262,1.732,3.646,2.783,7.159.867,2.909,4.447,4.851,4.587,7.985-.528-2.385-2.594-1.18-1.53,1.239a11.3,11.3,0,0,1,1.113,5.782c-.579,4.354.744,8.374.972,12.8.16,3.111,1.289,10.246,5.006,10.877,2.148.364,6.079,7.063,7.508,5.781.1,1.88,3.5,1.249,3.755,3.3a2.522,2.522,0,0,1-.129.993q.116-.122.242-.24a88.7,88.7,0,0,1,7.611,20.854c.4,1.777.373,3.536,1.185,5.212a19.424,19.424,0,0,1,2.07,5.243c.245,1.357,1.954,1.472,2.326,2.914.344,1.329.622,3.609,1.8,4.519,1.467-1.041-.936-4.992.6-5.245,1.5-.248,2.392,1.636,2.493,2.752.117,1.305,1.05,3.534,2.3,4.115a2.4,2.4,0,0,0,1.994-.111,2.041,2.041,0,0,1,2.707.543c1.5,1.668,1.676,2.9,4.093,3.234,2.79.384,3.849,2.523,5.335,4.736,1.434,2.134,2.682,4.3,4.917,5.713a17.294,17.294,0,0,1,2.876,2.353c.445.436,2.6,3.4,1.529.728,1.476.943,1.47,3.031,1.934,4.508.407,1.287,1.838.935,2.669,1.807.8.842,4,6.8,5.2,3.812,1.086,1.018,1.67,1.541,1.271,2.243,1.04,2.249,5.3,6.413,3.238,9.027-1.06,1.345-4.37,2.88-5.954,3.5-1.624.641-1.834,2.56-3.687,2.859.68.876,2.116.454,3.558.031a5.421,5.421,0,0,1,3.049-.363c.91.353,1.3.858,1.376,1.442.036-.084.071-.17.1-.255,3.673,2.048,5.7,6.941,8.21,10.11,3.138,3.956,7.92,5.054,12.773,3.455a24.914,24.914,0,0,0,5.851-3.439c2.8-2.07,3.6-1.722,7.045-1.155,3.565.587,5.17,1.333,8.5-.743,1.681-1.048,5.538-4.958,7.7-4.188a8.7,8.7,0,0,0,6.6.07,43.344,43.344,0,0,1,4.617-1.671c1.838-.41,3.067.389,4.82.563,2.872.288,5.071-1.415,7.554-2.425,2.589-1.053,5.535-.587,8.146-1.912,2.173-1.1,2.393-3.941,4.241-4.849,1.791-.882,7.575.651,6.864,3.235-.922,3.345-1.543,5.386-.927,8.935.426,2.472,1.072,6.015-1.089,7.911,1.438.539,2.626.2,2.31-1.322a6.782,6.782,0,0,0,2.324.991c-.206,1.022-1.324,1-2.529.976-1.591-.03-3.336-.06-3.347,2.309-.015,3.4.271,6.879-.675,10.211-.808,2.846-2.521,5.024-4.131,7.413-1.875,2.789-1.656,6.919-3.953,9.6-.891,1.043-2.121,1.308-2.739,2.685s-.083,2.911-.6,4.359c-1.171,3.3-3.534,5.924-5.18,8.965-2.191,4.048-2.369,8.5-4.08,12.69-1.738,4.254-4.448,8.012-6.944,11.841-2.421,3.716-4.026,8.021-6.8,11.491-3.077,3.854-6.162,7.7-9.3,11.5a89.172,89.172,0,0,1-21.072,19.241,55.715,55.715,0,0,0-9.908,7.583c-3.292,3.365-7.058,6.687-10.034,10.322-2.946,3.6-6.042,7.1-8.953,10.713-1.418,1.759-2.658,3.65-4.037,5.44-.854,1.106-3.41,5.1-3.864,2.771,0,3.785-2.473,7.423-4.756,10.28.006-.089.009-.178.009-.267a3.5,3.5,0,0,1-.6,1.544c-1.063,1.582-4.231,4.471-6.217,2.644-.159.4-.309.8-.444,1.208a10.9,10.9,0,0,1-.871-1.208c.52,1.2,1.85,3.417.657,4.63-.206-2.993-1.443.436-1.744,1.125-.617,1.416-1.8,1.688-3.156,1.879a3.96,3.96,0,0,0-3.254,5.6c.438,1.156-1.678,4.5-2.55,5.212-1.487,1.206-2.735,9.322-4.389,8.627.722,3.143-2.422,5.376-2.967,8.254-.739-.537-1-.224-1.3.09a.858.858,0,0,1-.9.354,2.085,2.085,0,0,1-.484-.188,1.986,1.986,0,0,1,.517,1.307,36.435,36.435,0,0,1-2.862,9.561,38.837,38.837,0,0,0-1.846,4.477,9.856,9.856,0,0,0-.442,2.241c-.066,1.046.9,2,.735,2.93-.706,3.959,5.7,4.266,4.9,8.491,3.462-1.1,3,3,1.7,4.64-2.068,2.611-.856,5.7-2.253,8.23,2.4-2.182,2.249,2.345,1.688,3.5a10.49,10.49,0,0,0-1.229,5.672c.23,1.769,2.818,4.75.872,5.132,1.477.281.612,3.025,1.756,2.912,1.866-.182.909,1.877.5,2.774-.746,1.66,1.193,2.271,1.531,3.787.188.844-.453,1.343,0,2.193.593,1.112.862,1.787-.276,2.748,1.936-.359,2.7,1.289,3.074,2.858-.168-2.723,6.465,1.161,4.445,4.185a1.7,1.7,0,1,1,1.128,3.2c.371.175.737.357,1.1.55-1.113,1.434-.482,3.049-1.1,4.616-.332.844-2.459,1.937-1.206,2.828,1.04.737.8,4.68.946,6.205a18.733,18.733,0,0,1,.1,3.456c-.153,1.74-.7,1.3-.209,2.846a3.2,3.2,0,0,1-.122,1.692c-.226,1.067.446,1.39.721,2.313A5.149,5.149,0,0,1-2482.2-3470c3.064.436-.924,7.161.276,7.544,2.1.672.05,7.668.718,9.3,2.309-1.368-.336,3.094.337,4.173.185-1.947,2.147-1.612,1.811.317-.364,2.092.138,3.574-2.04,4.757.4.309.8.6,1.225.872-2.521-.6-.347.317-1.071,1.184-.457.547-1.169.754-1.469,1.46,2.434-.865.333,2.994-.03,3.756-1.219,2.575-3.814,4-5.067,6.562a20.1,20.1,0,0,1-2.959,4.071,5.324,5.324,0,0,1-.321,1.785l-.518-.731a13.247,13.247,0,0,0-.859,1.3c-1.059,1.847-8.234,4.339-7.975,6.349.118.929-5.419,1.88-6.5,2.543a12.993,12.993,0,0,1-3.109,1.37c-1.733.506-1.435-.156-2.693,1.007-1.811,1.674-4.347,2.466-6.5,3.584s-5.557,6.324-7.961,4.28c4.49,4.925-6.413,6.814-5.4,11.786a1.564,1.564,0,0,1-1.759-1.329c.217,1.746-1.444,3.962-1.208,1.543-2.1,1.818-4.634,3.066-6.339,5.309a44.726,44.726,0,0,1-4.7,5.6c-.735.7-3.659,3.785-4.709,2.509-.678-.822-1.543-3.643-3.077-2.75,2.645-.158,1.72,3.168,2.242,3.975a3.191,3.191,0,0,1,.1,2.791,1.087,1.087,0,0,1-.916.723,3.127,3.127,0,0,1,.339,2.019c-.288,3.474.855,2.514,2.644,4.8a6.71,6.71,0,0,1,1.271,4.389c-.016.616-.5,5.409.38,2.443-.67,2.588,1.053,5.385,1.314,8.025.159,1.582.725,3.238.463,4.835-.222,1.347-.8,2.843.64,3.759.258-1.7.184-3.224,1.328-4.632-.027.518,0,4.23.551,1.114-.307,1.791-.755,3.56-.915,5.375-.143,1.627,1.011,3.074.8,4.659-.557,4.24-3.561,8.331-3.013,12.819-.115-1.03.252-.97.662-.908s.868.121.919-.927c1.656,2.79-1.557,6.965-3.276,8.933-2.841,3.255-7.153,4.741-11.121,6.14-4.491,1.583-9.016,3.232-13.023,5.838-1.809,1.176-3.7,2.211-4.706,4.224-.864,1.725-1.3,3.732-3.552,4.028.578-.007,1.288.781,2.016,1.568,1.165,1.26,2.373,2.521,3.153.527-.263,2.678,1.1,9.509-1.471,9.657l.1,0c-1.311,5.794-2.969,10.906-4.518,16.646-.8,2.97-2.369,9-6.46,8.712.647,1.454-1.254,1.4-2.129,1.577-1.1.222-2.028,1.6-2.724,2.373-2.46,2.739-4.975,6-6.106,9.486-.634,1.959-2.368,3.2-3.355,4.953-1.519,2.7-3.108,5.377-4.885,7.917-3.2,4.573-6.625,7.658-10.887,11.169-3.557,2.931-5.656,7.189-9.208,10.109-4.52,3.715-8.945,7.547-13.6,11.088-3.664,2.78-7.861,6.11-12.577,6.746a9.979,9.979,0,0,1-3.021-.207,7.938,7.938,0,0,0-3.731-.047c-1.623.5-3.883,2.452-1.652,3.853-1.254.556-2.574.094-3.879-.366-1.456-.515-2.894-1.03-4.2-.131-2.9,1.989-3.518,3.161-7.5,1.645-2.989-1.137-6.818-2.351-9.973-1.147-1.414.539-.7,1.449-2.843.683-1.26-.451-3.459.329-4.1-1.126a1.253,1.253,0,0,0,0,.55c-3.232-.524-8.409.965-10.067,3.973-.854,1.55-3.723,1.24-6.4.93-1.858-.216-3.626-.431-4.567-.025-1.38.6-2.834.2-4.128.811a29.042,29.042,0,0,0-4.684,3.312c-.941.733-1.171.991-1.5.991A12.815,12.815,0,0,1-2727.422-3181.611ZM-2731.54-3259q.181-.04.374-.1l0,0Q-2731.364-3259.042-2731.54-3259Zm-7.521-.608c.206-.032.414-.063.624-.088C-2738.645-3259.669-2738.852-3259.639-2739.061-3259.605Zm-13.761-4.059c-.026-.115-.049-.219-.069-.316A1.659,1.659,0,0,0-2752.822-3263.665Zm164.788-18.07a1.089,1.089,0,0,0,.231-.636A2.176,2.176,0,0,1-2588.034-3281.735Zm-8.595-2.439c-.223-.34-.476-.716-.848-1.186-.233-.293-.414-.519-.565-.7C-2597.513-3285.4-2597.082-3284.78-2596.629-3284.175Zm-118.129-1.335.025-.028-.026.021-.009-.017Zm130.668-.391,5.327.184-5.352-.207v0l-.82,0Zm-124.648-.282c.439.081.879.162,1.312.23-.754-.146-1.441-.318-2.317-.41C-2709.41-3286.307-2709.074-3286.245-2708.738-3286.183Zm-3.9-.367a6.239,6.239,0,0,1,.825-.038c-.075,0-.151-.005-.227-.005A3.976,3.976,0,0,0-2712.635-3286.55Zm11.36-2.115a7.041,7.041,0,0,0,.86-.118C-2700.7-3288.733-2700.979-3288.712-2701.275-3288.666Zm-12.925-13.168c-.366-1.168-.789-2.361-1.266-3.518C-2715.014-3304.16-2714.611-3302.948-2714.2-3301.833Zm36.861-.3a4.526,4.526,0,0,1-.658-.237A2.071,2.071,0,0,0-2677.339-3302.138Zm-3.22-2.411-.088-.109a5.286,5.286,0,0,0-1.138-1.034C-2681.389-3305.357-2680.976-3304.958-2680.559-3304.55Zm-7.772-1.365a5.369,5.369,0,0,1,1.631-.827A4.114,4.114,0,0,0-2688.331-3305.915Zm33.579-8c.059-.022.124-.044.2-.067A1.757,1.757,0,0,0-2654.752-3313.914Zm27.8-28.011a11.506,11.506,0,0,1,2.047-.662A7.538,7.538,0,0,0-2626.953-3341.925Zm12.352-6.278h.007l-.013-.016Zm-102.476-2.246-3.62-.052v.048Zm138.767-8.6-.039-.05a.533.533,0,0,0-.094-.022A.6.6,0,0,1-2578.311-3359.048Zm-54.4-3.634a5.832,5.832,0,0,1-.235-2.269A4.142,4.142,0,0,0-2632.709-3362.682Zm.419-5.085a3.639,3.639,0,0,0-.03-1.052A3.923,3.923,0,0,1-2632.291-3367.767Zm-5.287-2.5.017,0q.062-.325.107-.629Q-2637.507-3370.6-2637.578-3370.267Zm64.536-10.667c.334-.134.666-.269,1-.4,0-.019,0-.039,0-.058q-.508.2-1.017.409Zm-106.161-15.851.007-.005c-.278-.535-.562-1.254-.889-2.018C-2679.806-3398.118-2679.535-3397.426-2679.2-3396.785Zm21.494-2.421c-.187-.293-.374-.594-.556-.9Q-2658-3399.65-2657.709-3399.206Zm-2.087-4.018q.068.172.14.343-.116-.3-.2-.6A1.551,1.551,0,0,0-2659.8-3403.224Zm15.055.287c-.317-.184-.639-.363-.967-.532C-2645.362-3403.277-2645.034-3403.089-2644.74-3402.937Zm-23.841-.18a2.239,2.239,0,0,1-.51-.366,1.765,1.765,0,0,0-1.577-.442q.092-.007.185-.009h.073C-2669.292-3403.935-2669.291-3403.319-2668.582-3403.117Zm16.153-.245c.6.387,1.457-.01,2.261-.435-.811.405-1.575.8-2.25.425a1.576,1.576,0,0,1-.182-.119A1.5,1.5,0,0,0-2652.429-3403.362Zm-58.019-.054a3.634,3.634,0,0,1-.791.167,4.1,4.1,0,0,0,1.9-.579C-2709.706-3403.692-2710.073-3403.541-2710.448-3403.416Zm43.552-.339c.151-.153.3-.317.442-.481C-2666.607-3404.073-2666.753-3403.908-2666.9-3403.755Zm-34.165-.153-.121.031c.246-.054.49-.112.739-.17,3.269-.758,6.716-1.52,10.226-2.264C-2693.851-3405.6-2697.474-3404.837-2701.061-3403.908Zm47.349-.916a2.059,2.059,0,0,0-.833-.72A2.668,2.668,0,0,1-2653.711-3404.824Zm-66.586-.181c-1.2-.125-2.4-.2-3.612-.267C-2722.7-3405.2-2721.495-3405.121-2720.3-3405.006Zm64.072-.375a9.743,9.743,0,0,1-1.16.092A5.389,5.389,0,0,0-2656.226-3405.381Zm-3.208-.2a3.6,3.6,0,0,1-.448-.2.458.458,0,0,1-.017.09Zm-21.377-2.652.146-.029a.808.808,0,0,1-.164-.042c-.073-.028-.146-.057-.217-.087Zm7.357-1.53a7.32,7.32,0,0,1,2.943-.3c.042.006.084.014.127.023l-.039-.023a5.53,5.53,0,0,0-.845-.064A7.81,7.81,0,0,0-2673.455-3409.766Zm-109.206-1.531.846-.007q-2.709-.025-5.4-.026h-.036C-2785.834-3411.269-2784.157-3411.282-2782.661-3411.3Zm39.429-.136.546-.021a16.508,16.508,0,0,1,3.209.016,6.753,6.753,0,0,0-1.484-.142C-2741.737-3411.58-2742.537-3411.5-2743.232-3411.432Zm-63.39-1.937c2.765-.527,4.79-3.348,7.612-3.557a5.054,5.054,0,0,0-1.98.469c-2,.885-4.05,2.972-6.248,3.137A2.857,2.857,0,0,0-2806.622-3413.369Zm174.844-1.3c-.123.21-.274.474-.449.781q.52-.789.982-1.562l.024-.04A7.853,7.853,0,0,0-2631.778-3414.665Zm85.164-1.456c-.659,1.077.35,1.754,1.321,1.608-.769.034-1.608-.284-1.406-1.02a6.687,6.687,0,0,1,.533-1.349C-2546.284-3416.663-2546.434-3416.414-2546.614-3416.12Zm.579-1.018a1.425,1.425,0,0,0,.16-.458A1.984,1.984,0,0,1-2546.034-3417.138Zm-83.41-.17c.407-.3.837-.591,1.28-.939q.4-.312.808-.589A19.326,19.326,0,0,0-2629.444-3417.309Zm81.731-2.641c-.642-.621-1.556-1.521-2.492-2.508A26.42,26.42,0,0,0-2547.713-3419.95Zm-23.773-.2a4.452,4.452,0,0,0,.876-.162c0-.015.006-.031.008-.046A8.333,8.333,0,0,1-2571.486-3420.151Zm-125.656-23.079c-.245,4.9.015,9.888-.12,14.8a7.364,7.364,0,0,0,1.531,4.947,11.57,11.57,0,0,1-1.41-3.88h0q0-8.327.032-16.67Q-2697.122-3443.634-2697.142-3443.23Zm143.566,16.861a4.063,4.063,0,0,0,.656.763,9.045,9.045,0,0,1-.943-1.507A2.2,2.2,0,0,0-2553.576-3426.368Zm-35.252-1.9a25.265,25.265,0,0,0-2.98-1.059,4.326,4.326,0,0,0-.557-.11A21.878,21.878,0,0,1-2588.829-3428.267Zm34.525-.8a12.844,12.844,0,0,0-.495-1.51A5.158,5.158,0,0,0-2554.3-3429.064Zm-63.088-.167a11.668,11.668,0,0,1,2.734-2.507A7.653,7.653,0,0,0-2617.391-3429.231Zm65.418-9.787q-.107.294-.228.583a3.687,3.687,0,0,0,.419-1.2C-2551.841-3439.415-2551.9-3439.208-2551.973-3439.018Zm-49.034-4.271q4.781-1.792,9.575-3.554C-2594.647-3445.717-2597.85-3444.558-2601.007-3443.289Zm33.067-12.354,6.366,7.111c0-.023,0-.045.005-.067-.916-1.01-4.947-5.7-6.43-7.107l-.081.037A.679.679,0,0,1-2567.941-3455.643Zm6.833,6.4a3.469,3.469,0,0,1,1.288-.333A2.626,2.626,0,0,0-2561.108-3449.248Zm8-1.05a.815.815,0,0,0-.551-.3A1.444,1.444,0,0,1-2553.11-3450.3ZM-2697-3459.1c-.124,3.231-.1,5.985-.069,8.549q.028-4.3.071-8.6C-2697-3459.137-2697-3459.12-2697-3459.1Zm153.367,8.326c.971.5.4-6.844-2.382-9.032-2.522.382-1.434-1.989-1.757-2.667l.051.025c-.05-.052-.1-.11-.16-.174-.34-1.1.245-3.253-.457-5.383-.918-2.79.722-4.477.357-5.714-2.118-7.151-.838-5.4-.939-6.3.828-1.882,3.587-1.528,2.917-8.2l.327.033-.263-.052c-.221-.214-.336-1.441-.64-1.894a35.824,35.824,0,0,1-2.377-3.871c-.965-1.916-.3-4-.705-6.029-.536-2.711-.076-5.221-.755-7.888a13.348,13.348,0,0,0-4.651-7.075c-2.056-1.6-2.531,1.292-2.4,1.989.021.033.04.068.059.1a10.34,10.34,0,0,0,2.573,7.307c2.2,2.655.106,3.194.433,5.318.278,1.8.947,10.284.977,11.27.12,3.9-4.941,7.781-3.6,10.1,5.176,8.939,3.524,8.808,3.235,10.6-1.2,7.479,3.874,5.789,3.1,9.168-1.9,8.344,3.126,6.986,2.9,3.015Zm-28.277-7.233a5.157,5.157,0,0,1-.7-1.094A2.556,2.556,0,0,0-2571.913-3458.011Zm-123.983-11.325c-1.914.256-1.119,6.992-1.1,9.779q.028-2.689.062-5.377c.016-1.259-.41-3.769,1.084-4.408Zm88.387,3.666a1.2,1.2,0,0,0-.364,1.687,1.327,1.327,0,0,1,.376-1.686c-.539-.662-1.26-.583-2.067-.209a2.88,2.88,0,0,1,1.068-.256A1.207,1.207,0,0,1-2607.508-3465.67Zm-10.371-3.416a8.686,8.686,0,0,0-.529-.807,4.792,4.792,0,0,0-.515-.558A10.59,10.59,0,0,1-2617.879-3469.086Zm-55.3-7.727c-.66,2.473-2.431,4.49-.32,6.817q-.466.2-.957.352.553-.145,1.1-.324c-1.751-1.931-.861-3.66-.037-5.748a5.368,5.368,0,0,0,.37-2.147A4.826,4.826,0,0,1-2673.183-3476.813Zm50.075.31a3.165,3.165,0,0,0-.614-.075,2.675,2.675,0,0,1-.8-.144A3.933,3.933,0,0,0-2623.108-3476.5Zm-1.887-.428c-.784-.42-1.414-1.117-2.2-1.55A21.881,21.881,0,0,0-2625-3476.932Zm62.288-.633.008-.008a3.687,3.687,0,0,1-.869-.387A3.374,3.374,0,0,0-2562.708-3477.564Zm-52.623-1.669a11.344,11.344,0,0,0,1.879,1.265,21.652,21.652,0,0,1-2.64-2C-2615.828-3479.708-2615.573-3479.462-2615.331-3479.233Zm6.335-.327a2.034,2.034,0,0,1,.606-.324A1.7,1.7,0,0,0-2609-3479.561Zm3.055-.943.069-.02v-.006Zm-67.668-1.6c-.009-.219-.009-.442,0-.669.022-.427.06-.859.107-1.3A5.692,5.692,0,0,0-2673.609-3482.1Zm34.321-1.714a4.6,4.6,0,0,0,.937-1.808A5.657,5.657,0,0,1-2639.289-3483.814Zm-11.438-.879c-.29-.151-.606-.309-.965-.471-.014-.006-.05-.018-.1-.032C-2651.426-3485.022-2651.073-3484.853-2650.727-3484.692Zm-3.382-1.06a.513.513,0,0,0-.088-.014l-.043.007Zm137.7-.772a6.529,6.529,0,0,1-2.242.491q-.112,0-.218-.007A4.36,4.36,0,0,0-2516.406-3486.524Zm-15-.17a9.658,9.658,0,0,0,3.4.528c-1.964-.178-2.989-.1-4.09-1.023A3.4,3.4,0,0,0-2531.409-3486.694Zm9.941-.813a5.163,5.163,0,0,0,1.231,1,12.746,12.746,0,0,1-1.173-.994c-.075-.065-.15-.124-.222-.177Q-2521.551-3487.6-2521.468-3487.507Zm-114.838.064a1.074,1.074,0,0,0-.621-.409A1.207,1.207,0,0,1-2636.306-3487.443Zm-36.323-2.918c-.16.87-.248,1.739-.332,2.606.51-3.226.947-6.539-.226-9.563a.469.469,0,0,0-.07.038C-2672.452-3495.73-2672.363-3491.806-2672.63-3490.361Zm3.123-.182.016,0q.07-.125.133-.252C-2669.407-3490.7-2669.457-3490.619-2669.507-3490.543Zm11.573-.763a4.762,4.762,0,0,1,.445-1.554h-.017A4.543,4.543,0,0,0-2657.934-3491.306Zm149.336-.893a2.117,2.117,0,0,0-1.159-.182l.113,0A3.225,3.225,0,0,1-2508.6-3492.2Zm-184.332-7.7c-.174.931-1.053,1.522-1.379,2.408-.606,1.645,1.055,3.224.542,4.929a1.464,1.464,0,0,0,.17-.006c.382-1.341-.42-2.4-.655-3.665-.328-1.753.884-2.067,1.269-3.415.632-2.219.2-5.6-.783-8.27A19.019,19.019,0,0,1-2692.929-3499.9Zm197.75,6a10.525,10.525,0,0,0,1.616-.972C-2494.1-3494.552-2494.638-3494.229-2495.179-3493.9Zm-173.485-.06c-.053-.517-.229-.869-.527-.919A1.5,1.5,0,0,1-2668.664-3493.959Zm-17.136-.9a4.551,4.551,0,0,0-1.049-.238C-2686.48-3495.026-2686.123-3494.943-2685.8-3494.863Zm-12.584-24.166c-.317,4.084,1.125,5.688,3.469,8.746l.006.008q-.149-.231-.3-.437c-2.314-3.068-3.305-4.988-3.014-8.959.105-1.449.353-2.923.581-4.4C-2697.932-3522.363-2698.257-3520.661-2698.384-3519.029Zm131.226,5.231c-.23-.1-.426-.18-.594-.252A6.439,6.439,0,0,0-2567.158-3513.8Zm4.859-.563a3.043,3.043,0,0,1-.482-.2A1.307,1.307,0,0,0-2562.3-3514.361Zm-2.959-1.646-.318-.083C-2565.467-3516.06-2565.36-3516.032-2565.257-3516.007Zm-3.355-1.144a1.538,1.538,0,0,1,.114.15,1.185,1.185,0,0,0-.165-.261,2.04,2.04,0,0,0,.313.173q-.229-.129-.457-.251A1.631,1.631,0,0,1-2568.613-3517.151Zm-3.518-1.46c-.347-.079-.715-.147-1.108-.2a.64.64,0,0,1-.326-.173C-2573.332-3518.666-2572.716-3518.663-2572.13-3518.611Zm-9.95-5.018c-.091.029-.183.063-.276.1a1.57,1.57,0,0,1-.96.146,1.675,1.675,0,0,1-.277-.108C-2583.16-3523.177-2582.674-3523.4-2582.08-3523.629Zm-10.708-3.338c2.816,2.8,3.854.947,3.567-.447h.027c-.748-1.671-4.5-9.343-6.246-13.976-1.615-4.3-.407-12.288-6.43-14.568-.434-.163-.493-.015-.547.133-.062.164-.12.328-.667.076-2.208-1.02-4.422-3.507-.5-7.362,1.508-1.482-1.039-4.3-1.738-6.819.879-6.432,1.12-1.95-1.612-7.751-.521-1.106.685-3.088.1-4.937l.108-.011c-.439-1.4-2.768-6.337-3.227-7.967-.668-2.375.271-4.836-1.307-6.9-2.875,2.585.639,10.581-2.117,13.213,1.029.59,1.437-.477,1.681-1.543.234-1.02.321-2.04.663-1.61.692,4.085-1.866,7.047-1.886,11.051-.026,5.2,4.357,7.6,2.514,11.192-1.065,2.077-2.185,2.533-1.285,3.871,1.377,2.048,1.961,5.424,4.682,10.751,1.818,3.558,7.012,2.891,7.329,11.463.124,3.365,2.751,1.519,3.761,6.68l-.257.058c-.076,1.223-1.527,2.728-1.481,3.032.1.662,2.18-.271,1.136,1.458.075.143.221-.03.493-.2a1.511,1.511,0,0,1,.834-.257A3.685,3.685,0,0,1-2592.789-3526.967Zm6.426.134a4.373,4.373,0,0,0-2.442-.569A5.52,5.52,0,0,1-2586.363-3526.834Zm-112.753-9.9c-.144,1.727,1.239,3.469,1.7,5.2q-.063-.316-.145-.631c-.41-1.56-1.52-2.916-1.5-4.57a5.953,5.953,0,0,1,.066-.783A6.025,6.025,0,0,0-2699.116-3536.732Zm-43.875,2.156c.384.021.728.042.994.059a26.323,26.323,0,0,0-3.421-.152C-2744.637-3534.658-2743.738-3534.617-2742.991-3534.575Zm-4.13,0a3.646,3.646,0,0,1,.714-.08c-.343,0-.691.008-1.048.01a2.407,2.407,0,0,1-.651-.242A1.148,1.148,0,0,0-2747.122-3534.578Zm-4.461-5.861a15.78,15.78,0,0,0-1.257-2.613l-.111-.161A24.177,24.177,0,0,1-2751.583-3540.438Zm-2.541-4.273c.241.256.451.5.637.738-.233-.326-.466-.647-.733-1.025a3.486,3.486,0,0,1-.642-2.25A3.13,3.13,0,0,0-2754.123-3544.711Zm41.6-.622c-.815-.626-.21-2,.636-4.534l-.164,0C-2712.509-3547.586-2713.536-3546.018-2712.52-3545.333Zm-42.568-3.624a3.583,3.583,0,0,1,.225,1.224,7.213,7.213,0,0,0-.061-.942,7.308,7.308,0,0,0-1.244-2.832C-2755.8-3550.659-2755.422-3549.817-2755.088-3548.957Zm-2.384-6.859a10.82,10.82,0,0,0,.055-2.072C-2757.416-3557.209-2757.475-3556.455-2757.471-3555.816Zm-.25-3.693.007.01a5.314,5.314,0,0,0-.873-1.7A7.111,7.111,0,0,0-2757.721-3559.51Zm-50.535-6a1.278,1.278,0,0,0,.8-.5A3.952,3.952,0,0,1-2808.256-3565.509Zm24.024-11.113c.447-.576,1.159-.516,1.914-.4-.749-.144-1.409-.252-1.913.4,0-.047,0-.1,0-.145C-2784.234-3576.721-2784.233-3576.671-2784.233-3576.622Zm-11.791-.106q.075-.078.154-.153c-.052.048-.1.1-.152.148-.1-1.843-2.672-2.1-3.089-3.854l0,.006h0C-2798.7-3578.828-2796.126-3578.572-2796.023-3576.728Zm3.53-3.095c.376-.967.324-2.139,1.1-2.959,1.014,1.345,2.307.525,3.626-.3a4.553,4.553,0,0,1,2.6-1,4.4,4.4,0,0,0-2.606.979c-1.318.807-2.632,1.615-3.617.31C-2792.213-3581.921-2792.106-3580.845-2792.493-3579.823Zm8.289-3.85a1.86,1.86,0,0,0-.332-.194C-2784.409-3583.8-2784.3-3583.735-2784.2-3583.673Zm12.195-1.768a.537.537,0,0,1-.019.052.662.662,0,0,0,.12-.251q.021-.108.047-.21A3.868,3.868,0,0,0-2772.01-3585.44Zm171.61-1.389,1.008-1.054A8.641,8.641,0,0,0-2600.4-3586.829Zm3.555-3.89a1.2,1.2,0,0,0,.107-.206C-2596.768-3590.864-2596.8-3590.795-2596.844-3590.719Zm87.636-.134q-.578-.524-1.107-1.05A15.1,15.1,0,0,0-2509.208-3590.852Zm-87.483-.717a4.031,4.031,0,0,0-.622-1.211C-2597.1-3592.343-2596.823-3591.9-2596.691-3591.569Zm-222.861-2.393c.19-.154.394-.314.616-.483A3.764,3.764,0,0,0-2819.552-3593.962Zm5.957-.749c.014.137.037.282.063.429a4.927,4.927,0,0,1,.1-1.415A1.926,1.926,0,0,0-2813.6-3594.711Zm218.3-.286a.48.48,0,0,0,.042-.23Zm-218.271-2.594a1.512,1.512,0,0,1,.277,1.574,1.3,1.3,0,0,0-.326-1.643C-2813.6-3597.639-2813.586-3597.616-2813.57-3597.592Zm300.352,1.264a4.536,4.536,0,0,1,.467-.6,2.8,2.8,0,0,0,.423-.6A5.361,5.361,0,0,0-2513.218-3596.328Zm-81.744-.019a4.406,4.406,0,0,1,.39-.388A1.01,1.01,0,0,0-2594.962-3596.346Zm82.808-2.485a2.492,2.492,0,0,1,.065.386,3.27,3.27,0,0,0-.667-1.913A6.01,6.01,0,0,1-2512.154-3598.832Zm-98.772-.9a2.77,2.77,0,0,0-.424-1.519A4.61,4.61,0,0,1-2610.926-3599.73Zm18.534-2.187.04-.043a5.272,5.272,0,0,1-2.593.144A5.075,5.075,0,0,0-2592.392-3601.918Zm22.931-.361c.741-.862-.567-1.177,2.284-1.416-.687-.008-1.474-1.45-1.657-2.892-.293-2.294.945-4.588,6.546-1.1.406-2.474,6.683-5.277,4.782-5.47a3.259,3.259,0,0,0-2.062.273,1.7,1.7,0,0,1-1.226.291c-3.834-.511-3.657-1.259-3.868-1.092.909-1.039.061-1.037,4.058-1.318-.242-1-2.006-.942-2.82-.885-.374.026-.547.052-.278-.024.391-.355-1.225-.967,3.19-1.56a1.471,1.471,0,0,0,.952-1.735c-.072-.31.116-.294.329-.279.156.012.326.024.416-.094-1.741-1.834-.514-2.052-.1-2.289s.828.216,2.69.6c-.442-.2-1.309-1.7-.493-2.613.273-.358.269-.156.265.046s-.008.4.242.071c-.6-.438-.4-1.457.056-1.991.436-.554,1.046-1.157,1.493-1.717l0,0,.017-.013.043-.055.013.008c2.068-1.813-3.472-8.634,4.47-7,.017-.438.459-1.346-.031-2.178l4.784-.62c-3.177-4.809-4.542-1.036-6.053.284-1.276,1.115-4.38-3.751-4.291-6.8-.164.008-.377.037-.613.065-1.093.132-2.695.265-2.343-1.628-1.778.673-1.219,1.181-1.951,1.294-1.167.179-1.715-.115-1.718-.409,0-.253.394-.505,1.146-.458-.418-.873-1.877-1.962-1.385-2.587-1.21.444-.411.125-2.072.746l.527.879c-1.448.387-.337,1.8-2.163,1.707.171,2.088-2.089,1.855-3.5,1.621a5.791,5.791,0,0,0-1.04-.142,6.482,6.482,0,0,1,.035-1.085c.034-.634.046-1.268-.124-1.036-1.5,3.493-2.311,3.114-2.792,2.734-.183-.144-.318-.288-.425-.218.077,1.024-.7,1.089-2.48,1.265-.84,1.191-2.822,1.162-2.658,1.581,1.562,3.992-1.721,4.652-2.236,7.456-.443,2.413.435,2.553.715,4.131l.069,0c1.541,5.783-1.139,5.9-.937,6.575.7,2.315-1.321,5.068-1.242,5.635,1.207,1.621-.114,3.171.136,4.009.837,2.8,1.532.579,1.871,7.417.178-1.448,1.243-2.225,2.109-.649-.344-2.807.034-3.077,1.778-2.853-1.317-.716-.452-2.331,1.607-3.479.4.4,2.409,4.7,4.522,1.953-.275.657,1.268.885,1.531,1.758.517,1.72.5,4.821-1.007,4.139Zm-246.237-1.291a1.14,1.14,0,0,0-.677-.532A1.5,1.5,0,0,1-2815.7-3603.569Zm-2.248-.481q.1-.035.2-.063c1.356-1.947.95-4.258.363-6.4l-.131-.03C-2816.918-3608.367-2816.509-3606.016-2817.947-3604.051Zm208.662-.489-.045-.03A.207.207,0,0,0-2609.284-3604.539Zm-4.2-.146q-.054-.159-.1-.324l0-.008q-.2-.19-.377-.377C-2613.8-3605.157-2613.645-3604.921-2613.483-3604.686Zm-.094-.339a4.56,4.56,0,0,1,.666-1.417A2,2,0,0,0-2613.577-3605.025Zm3.408-.613a2.3,2.3,0,0,0-.873-.909A5.911,5.911,0,0,1-2610.169-3605.638Zm14.055-.577.016-.025q-.14.013-.256.016A1.619,1.619,0,0,0-2596.115-3606.216Zm-6.714-3.08c.054-.415.1-.857.141-1.331C-2602.743-3610.185-2602.784-3609.738-2602.829-3609.3Zm-192.073-.079c1.361-.676,2.6-2.757,3.023-4.079a1.918,1.918,0,0,0-.085-.18A8.642,8.642,0,0,1-2794.9-3609.374Zm194.091-.477a2.956,2.956,0,0,1-1.861-.9s0,.008,0,.012C-2601.808-3610-2601.293-3609.813-2600.811-3609.851Zm-199.937-.115a2.029,2.029,0,0,1,.878-.273,1.891,1.891,0,0,0-.815.147A1.283,1.283,0,0,1-2800.748-3609.966Zm-6.909-.164a1.844,1.844,0,0,0,.98-2.174c-.016-.108-.034-.222-.052-.342C-2806.669-3611.322-2806.98-3610.578-2807.657-3610.13Zm21.007-1.389a.829.829,0,0,1,.125.2,11.737,11.737,0,0,1,.151-2.3A9.032,9.032,0,0,0-2786.651-3611.52Zm25.921-2.478a5.36,5.36,0,0,0,1.4-1.558A9.451,9.451,0,0,1-2760.73-3614Zm-46.175-.155c-.091-1.31.034-2.64.982-2.926C-2806.712-3616.977-2807.185-3616.13-2806.905-3614.153Zm194.988-.55c0,.072-.008.144-.016.217a2.1,2.1,0,0,0,.074-.573,8.345,8.345,0,0,1,.4-2.939A7.287,7.287,0,0,0-2611.917-3614.7Zm-174.1-.3a2.548,2.548,0,0,1,.248-.481A1.259,1.259,0,0,0-2786.017-3615Zm1.319-5.128a2.3,2.3,0,0,1,.514,2.953c.544-1,.649-2.236-.384-2.926,2.224-.784,1.132-5.044.653-6.592-.008-.026-.016-.053-.023-.08C-2783.5-3624.975-2782.349-3621.34-2784.7-3620.128Zm182.348-1.99a.868.868,0,0,1-.376-.035A.465.465,0,0,0-2602.351-3622.118Zm-5.312.014.226-.14c.027-.085.061-.175.1-.268C-2607.441-3622.368-2607.55-3622.233-2607.663-3622.1Zm3.914-1.429c-.019-.023-.039-.044-.059-.064C-2603.788-3623.577-2603.768-3623.556-2603.749-3623.533Zm-151.157-.76a15.643,15.643,0,0,1,3.416-3.026,15.171,15.171,0,0,0,2.431-2.052C-2751.176-3627.513-2753.268-3626.379-2754.906-3624.293Zm284.757-.973c.163.2.334.4.508.611-.364-.461-.742-.926-1.116-1.4Q-2470.471-3625.658-2470.149-3625.266Zm-129.66.239c-.071.088-.144.19-.22.3.323-.384.666-.771,1.014-1.125A6.607,6.607,0,0,0-2599.809-3625.028Zm-184.166-9.436c2.138,2.133-.466,4.841-.081,7.146.015.093.037.2.063.313-.447-2.284,1.748-4.771.663-6.774a3.5,3.5,0,0,0-2.644-1.532A4.663,4.663,0,0,1-2783.975-3634.464Zm187.583,7.205a1.435,1.435,0,0,1,.2-.2q-.2.074-.4.156A.9.9,0,0,1-2596.392-3627.259Zm-191.014-9.123a.576.576,0,0,0,.106.453c-.042-.153-.071-.32-.1-.489C-2787.4-3636.4-2787.4-3636.393-2787.406-3636.381Zm-.151-.663a1.013,1.013,0,0,0-.7-.673A2.048,2.048,0,0,1-2787.557-3637.044Zm.157-11.764c-2.559.594-2.694,4.953-2.454,6.976.1.808-1.326,2.8-.436,3.49-.769-.833.8-2.4.45-4.151-.32-1.619.238-4.807,1.74-5.89a4.485,4.485,0,0,1,.755-.439Zm181.98,8.478c-.052.46-.089.921-.118,1.383.089-.767.181-1.535.281-2.307q.012-.093.026-.185A10.5,10.5,0,0,0-2605.42-3640.33Zm2.917-8.166a4.85,4.85,0,0,0,.01-1.01A10.022,10.022,0,0,1-2602.5-3648.5Zm49.5-.755a4.422,4.422,0,0,0,.583-.677A7.162,7.162,0,0,0-2553-3649.25Zm-232.49-.3a3.105,3.105,0,0,0,1.352-1.537c.589-1.25.031-2.265-.545-3.306C-2783.9-3652.677-2783.61-3650.728-2785.494-3649.547Zm41.751-3.067q.019-.227.035-.435C-2743.722-3652.908-2743.734-3652.764-2743.743-3652.615Zm193.959-1.9a9.886,9.886,0,0,1,1.21-1.576A3.452,3.452,0,0,0-2549.784-3654.515Zm-279.266-.384-5.091-.112c-.05.007-.112.018-.182.031.047,0,.095,0,.143,0Zm43.738-.669c.042.071.085.143.127.216l-.041-.094a17.079,17.079,0,0,0-1.615-3.486C-2786.247-3658.037-2786.02-3656.751-2785.313-3655.568Zm-13.112-11.915c-1.507,3.533.94,6.887-.27,10.05l.155-.028c.794-2.157-.1-4.5-.3-6.678-.222-2.407,1.307-4.685,1.382-5.906a.167.167,0,0,1,.094-.138.8.8,0,0,1-.167-.113A10.509,10.509,0,0,1-2798.425-3667.483Zm56.728,6.5c.066-.264.123-.531.168-.8a11.261,11.261,0,0,0,.141-1.79A22.333,22.333,0,0,1-2741.7-3660.985Zm-23.157-2.145.012-.018-.017.013Zm177.814-5.9a14.8,14.8,0,0,1-3.036,4.811,15.159,15.159,0,0,0,3.106-4.906,1.286,1.286,0,0,0-.142-1A1.579,1.579,0,0,1-2587.039-3669.025Zm-179.234,4.606q-.183-.154-.369-.3Q-2766.456-3664.572-2766.274-3664.419Zm2.02-.363a4.211,4.211,0,0,0-.077-.974A8.853,8.853,0,0,1-2764.253-3664.782Zm-14.44-3.821q-.049-.091-.091-.19a.652.652,0,0,0-.185-.06C-2778.875-3668.773-2778.784-3668.689-2778.693-3668.6Zm-5.98-1.24.047,0c-.161,0-.324,0-.488.006A3.79,3.79,0,0,0-2784.674-3669.843Zm-42.734-.089,1.546-.017Q-2826.635-3669.946-2827.407-3669.933Zm63.967-1.136.008-.009c-.261-1.15-.5-2.256-.706-3.359C-2763.938-3673.3-2763.69-3672.167-2763.44-3671.069Zm.654-.874a4.055,4.055,0,0,0,.348-.651c.114-.274.23-.547.349-.82C-2762.33-3672.923-2762.567-3672.433-2762.786-3671.943Zm171.436-.62c-.093.025-.187.051-.279.072.353-.031.761-.1,1.211-.18a.962.962,0,0,0-.218-.024A2.847,2.847,0,0,0-2591.35-3672.564Zm-1.159.016a1.092,1.092,0,0,1-.4-.507,2.291,2.291,0,0,1-.085-.217A.719.719,0,0,0-2592.509-3672.548Zm-172.531-7.937c.083.333.16.617.227.883a3.329,3.329,0,0,0-.237-.921Zm-.474-.782a4.75,4.75,0,0,0-1.422-1.052A7.345,7.345,0,0,1-2765.514-3681.267Zm274.934-5.082a.059.059,0,0,0,0-.009,3.191,3.191,0,0,0-.331-.276A4.218,4.218,0,0,1-2490.58-3686.349Zm-101.047-.175a3.389,3.389,0,0,0-.258-.4Q-2591.766-3686.717-2591.627-3686.525Zm-.464-.789a.82.82,0,0,1-.024-.1l-.011.024Zm-161.161-.956q-.137.027-.271.05a4.366,4.366,0,0,0,.5-.1Q-2753.136-3688.293-2753.252-3688.27Zm203.228-.523a1.234,1.234,0,0,0,.036-.3Q-2550-3688.95-2550.024-3688.793Zm-30.25-1.957a10.613,10.613,0,0,0,1.642,1.912,20.909,20.909,0,0,1-1.258-1.687,1.046,1.046,0,0,0-.536-.4A1.937,1.937,0,0,1-2580.274-3690.75Zm-15.452,1.654.125-.029a3.186,3.186,0,0,0,.181-.707A4,4,0,0,1-2595.726-3689.1Zm10.867-.77c-.672-.319-1.273-.948-1.966-1.24A21.683,21.683,0,0,0-2584.859-3689.865Zm97.519-1.5-.09.133c.206-.259.4-.5.563-.727A5.3,5.3,0,0,0-2487.341-3691.367Zm-66.367-1.248a2.156,2.156,0,0,0-.617-.01v0c.117-.012.222-.018.316-.018A1.638,1.638,0,0,1-2553.708-3692.616Zm-.578-.131a1.882,1.882,0,0,0,.111-.611A2.894,2.894,0,0,1-2554.286-3692.746Zm-220.931-2.08a1.278,1.278,0,0,0-.546.118,1.351,1.351,0,0,1,.555-.116c-1.157-.815-1.493-2.205-1.984-3.532A6.228,6.228,0,0,0-2775.217-3694.826Zm83.672-1.074a9.44,9.44,0,0,1-2.989-.579A7.167,7.167,0,0,0-2691.545-3695.9Zm211.835-.478c.422-.17.833-.339,1.226-.51C-2478.9-3696.738-2479.318-3696.558-2479.71-3696.378Zm-210-.417a7.217,7.217,0,0,0,1.227-2.379A7.818,7.818,0,0,1-2689.708-3696.8Zm134.179-.187a1.016,1.016,0,0,1,.009-.168l-.066.089Zm-150.928-2.079-.027-.033a1.843,1.843,0,0,0-.638-.507A3.673,3.673,0,0,1-2706.457-3699.061Zm184.546-.372a7.658,7.658,0,0,0-2.878-.3A11.928,11.928,0,0,1-2521.911-3699.433Zm72.3-2.01a11.107,11.107,0,0,0-1.13,1.243,30.782,30.782,0,0,1,2.622-2.494Q-2448.871-3702.123-2449.614-3701.442Zm-81.452,1.177.019.007a6.394,6.394,0,0,1-.853-.674A2.028,2.028,0,0,0-2531.066-3700.265Zm-202.034-.233a1.556,1.556,0,0,0,.1-.194c.055-.125.11-.249.166-.373Q-2732.977-3700.784-2733.1-3700.5Zm123.484-.441q-.077.128-.154.256a8.769,8.769,0,0,0,.9-1.414A12.169,12.169,0,0,0-2609.616-3700.939Zm-16.461-.244a2.132,2.132,0,0,0-.41-.269Q-2626.282-3701.323-2626.077-3701.183Zm83.125-1.126c1.333,0,2.667-.068,4-.125a60.416,60.416,0,0,0-7.852.012C-2545.562-3702.416-2544.272-3702.309-2542.951-3702.309Zm-139.03-1.361c.174.189.347.378.524.554-.217-.241-.438-.482-.666-.707Zm53.353.475a11.053,11.053,0,0,0-.465-1.023A5.574,5.574,0,0,0-2628.629-3703.2Zm-412.313-1.8c.059-.256.121-.515.186-.774C-3040.824-3705.506-3040.887-3705.248-3040.942-3704.992Zm606.139-1.383c.794.092,1.6.183,2.392.236-.833-.111-1.724-.21-2.661-.266Zm-225.38-.576-.262.082a10.222,10.222,0,0,0,1.365-.4C-2659.469-3707.153-2659.851-3707.055-2660.183-3706.951Zm-59.7-.307h0c-.4-.222-.79-.435-1.165-.641A3,3,0,0,0-2719.884-3707.258Zm77.533-1.053.058,0c.209-.017.424-.034.651-.034a1.588,1.588,0,0,0-.276-.025A1.517,1.517,0,0,0-2642.35-3708.311Zm-1.9-.318a2.032,2.032,0,0,0-.5-.3l-.025-.01C-2644.607-3708.83-2644.433-3708.725-2644.255-3708.629Zm-341.924-.209a2.777,2.777,0,0,0,.722-.127A7.2,7.2,0,0,0-2986.179-3708.837Zm1.76-.187a2.653,2.653,0,0,1-.118-.692,2.577,2.577,0,0,0,.112.691Zm327.846-.87c.012.062.021.122.029.18a3.929,3.929,0,0,0-.064-.781A2.089,2.089,0,0,0-2656.573-3709.895Zm-346.959-1.27c-.49.055-5.381.927-4.986,1.14,1.11.6,2.7.06,4.3-.481a16.489,16.489,0,0,1,2.3-.663h-.028c-.374-.008-.727-.017-1.019-.017A5.553,5.553,0,0,0-3003.532-3711.164Zm153.727.742c.041-.177.095-.364.158-.557A3.226,3.226,0,0,0-2849.805-3710.422Zm67.2-.967c0-.018-.008-.036-.011-.054l-.03.047a.012.012,0,0,1,.01-.005A.063.063,0,0,1-2782.6-3711.389Zm242.9-.544a3.866,3.866,0,0,1,.939-.9,2.164,2.164,0,0,0-1.213.551A1.66,1.66,0,0,0-2539.7-3711.933Zm-308.522-2.817a3.535,3.535,0,0,0,.1-.577A5.244,5.244,0,0,1-2848.223-3714.75Zm-138.326-1.626a4.213,4.213,0,0,0,.04-1.682A6.941,6.941,0,0,1-2986.549-3716.377Zm139.358-3.49c1.151-1.295,2.293-2.6,3.494-3.855A47.4,47.4,0,0,0-2847.191-3719.867Zm-98.684-.779c-1.149-.948-2.842-.569-4.195-1.147C-2948.948-3720.887-2947.155-3721.347-2945.875-3720.646Zm4.624-3.964c.123.1.46.309.857.559-.347-.239-.695-.465-1-.666Zm9.788.287-.026,0h.03c-.009-.1-.022-.2-.04-.3Q-2931.476-3724.473-2931.463-3724.324Zm-117.407-.463c-.086-.012-.169-.025-.251-.04C-3049.039-3724.811-3048.956-3724.8-3048.87-3724.787Zm268.515-.5a9.308,9.308,0,0,0,.844-1.537C-2779.8-3726.328-2780.094-3725.826-2780.354-3725.288Zm-162.01-.186a19.962,19.962,0,0,1-2.8-2.811A12.375,12.375,0,0,0-2942.364-3725.473Zm102.4-1.547a13.156,13.156,0,0,0-1.209.939,6.035,6.035,0,0,0,2.265-2.129A3.8,3.8,0,0,1-2839.959-3727.021Zm-210.317.5h0Zm226.965-.934q-.012-.066-.022-.134A.863.863,0,0,0-2823.312-3727.451Zm-229.466-.09a.563.563,0,0,0,.02.058,3.7,3.7,0,0,1,1.082-1.209A5.133,5.133,0,0,0-3052.778-3727.541Zm274.578-1.8c.29-.5.566-1.04.835-1.6C-2777.665-3730.387-2778-3729.8-2778.2-3729.339Zm-59.235-1.555a10.262,10.262,0,0,1,1.525-1.853A6.278,6.278,0,0,0-2837.434-3730.894Zm4.438-1.829a2.891,2.891,0,0,0,2.252.591c1.467-.322,1.559-2.349,1.891-3.51l-.012-.048c-.335,1.156-.42,3.205-1.9,3.529a2.771,2.771,0,0,1-2.185-.565,3.518,3.518,0,0,0-1.291-.6A4.191,4.191,0,0,1-2833-3732.723Zm-216.21-.508c.061-.4.1-.772.124-1.1a7.869,7.869,0,0,0,0-.877A15.641,15.641,0,0,1-3049.207-3733.231Zm114.906-.486a.907.907,0,0,0,.247-.1,1,1,0,0,1-.269.027Zm379.934-2.679c-.345-.53-.673-1.077-1.007-1.62A12.021,12.021,0,0,0-2554.366-3736.4Zm-504.273-.028c2.494-1,3.533-1.74,4.338-4.322.061-.2.12-.439.192-.7-.238.666-.4,1.339-.542,1.624-1.015,2.021-1.767,2.451-3.991,3.343C-3058.641-3736.457-3058.64-3736.441-3058.64-3736.424Zm-23.518-2.176a5.977,5.977,0,0,0-1.164,1.163c.53-.522,1.084-1.027,1.648-1.527Q-3081.908-3738.782-3082.157-3738.6Zm308.814-.426a10.511,10.511,0,0,0-.615.945c.208-.34.423-.665.648-.97l.1-.135C-2773.26-3739.131-2773.305-3739.077-2773.344-3739.026Zm-40.564-.3a2.638,2.638,0,0,0-.468.913q.027-.064.059-.128.2-.4.416-.794Zm-245.589.887a3.432,3.432,0,0,0-3.421-.238l-.019.057a5.145,5.145,0,0,1,1.774-.352A2.554,2.554,0,0,1-3059.5-3738.443Zm9.187-1.594c.219.478.4.923.559,1.345a9.646,9.646,0,0,0-.6-1.427Zm-25.959-6.47c-.246,2.709-.336,2.579-1.831,4.16-.525.555-1.046,1.109-1.61,1.66a31.624,31.624,0,0,0,2.657-2.591c1.292-1.451.385-3.387,1.4-4.673a4.528,4.528,0,0,1,.877-.868A2.765,2.765,0,0,0-3076.269-3746.507Zm304.58,5.782c.066-.041.132-.076.2-.108l-.112,0C-2771.633-3740.8-2771.66-3740.76-2771.689-3740.725Zm3.125-.142q.2,0,.423-.026Q-2768.351-3740.877-2768.565-3740.867Zm12.175-.185,0-.006c-1.043-1.493-2.485-2.549-2.961-4.394l-.007,0C-2758.876-3743.6-2757.432-3742.55-2756.39-3741.052Zm-291.683-.1a1.774,1.774,0,0,1,.145-.441,1.51,1.51,0,0,0-.2.406c-.321-.279-1.968-1.081-2.891-.308l.041.075a1.622,1.622,0,0,1,1.066-.38A3.7,3.7,0,0,1-3048.073-3741.156Zm291.741,0a5.3,5.3,0,0,1,1.875-1.786A4.349,4.349,0,0,0-2756.332-3741.161Zm-7.744-.863q-.222.1-.431.184c.575-.166,1.149-.337,1.76-.528A9.8,9.8,0,0,0-2764.076-3742.024Zm-283.417-.3a4.937,4.937,0,0,0,.886-1.631A13.268,13.268,0,0,1-3047.493-3742.323Zm-4.067-.027a1.79,1.79,0,0,0-.459-.5A3.1,3.1,0,0,1-3051.56-3742.35Zm131.491-.434a10.821,10.821,0,0,0-.474-1.732C-2920.413-3743.982-2920.236-3743.391-2920.069-3742.784Zm-126.937-2.854a3.351,3.351,0,0,0,.121.442,1.965,1.965,0,0,1-.009-.769A1.469,1.469,0,0,0-3047.006-3745.638Zm653.751-1.448.014-.017h0Zm-416.8-.019q.046-.156.089-.314c.035-.128.063-.256.085-.385Q-2809.959-3747.454-2810.054-3747.1Zm-234.93-.215a21.485,21.485,0,0,0-2.112-2.321,30.1,30.1,0,0,1,2.072,2.286.889.889,0,0,0-.34-.1A1.269,1.269,0,0,1-3044.984-3747.32Zm-17.412-.58c-.033.059-.073.142-.115.205a.525.525,0,0,0,.2-.132c-.02-.062-.04-.1-.059-.1S-3062.386-3747.915-3062.4-3747.9Zm327.468-.568a3.82,3.82,0,0,0,.348-.483C-2734.694-3748.784-2734.81-3748.622-2734.928-3748.468Zm-313.4-4.455a2.806,2.806,0,0,0,.726,2.675,4.255,4.255,0,0,1-.746-1.531c-.225-.913.037-1.415.572-1.648A.859.859,0,0,0-3048.327-3752.923Zm115.2,2.284q.016-1.489.022-2.975Q-2933.124-3752.126-2933.129-3750.639Zm-144.046-.121a.644.644,0,0,1,.1-.147,3.34,3.34,0,0,1,.178-1.163A2.815,2.815,0,0,0-3077.175-3750.76Zm4.718-.211c.081-.181.161-.384.243-.613.4-1.133,0-1.3.272-1.544-.123-.041-.223-.079-.3-.115C-3071.962-3752.852-3072.167-3751.909-3072.457-3750.971Zm263.132-1.541a2.147,2.147,0,0,0-.474,1.226,3.819,3.819,0,0,1,.126-.593c.187-.618.826-1.006,1.327-1.558A10.384,10.384,0,0,0-2809.325-3752.512Zm-232.034.46c-.587-1.788-.575-3.73-1.81-4.823,1.2,1.1,1.191,3.019,1.771,4.789l-.18-.063Zm-21.867-.029c-.337-.371-.641-.68-.917-.939C-3063.823-3752.7-3063.52-3752.37-3063.226-3752.082Zm497.809-.1a2.156,2.156,0,0,1,.591-.564A.943.943,0,0,0-2565.417-3752.181Zm7.978-.549a3.729,3.729,0,0,0,2.332-1.754,6.213,6.213,0,0,0,.559-4.048C-2554.472-3755.979-2554.936-3753.5-2557.439-3752.73Zm-509.9-1.044.136-.084a.246.246,0,0,1-.058-.021,1.846,1.846,0,0,1-1.258.523A1.894,1.894,0,0,0-3067.337-3753.774Zm-5.168.36a.071.071,0,0,1,.022-.1c-.1.028-.2.059-.293.092a.929.929,0,0,1,.119-.008A.655.655,0,0,1-3072.506-3753.413Zm2.7-.19c-.2-.039-.416-.074-.664-.1a5.3,5.3,0,0,0-1.4.051c.2-.016.428-.024.675-.024A13.772,13.772,0,0,1-3069.8-3753.6Zm3.629-.591a1.987,1.987,0,0,1,.634.149,1.3,1.3,0,0,0-.9-.134,1.233,1.233,0,0,1,.2-.017Zm335.875-.178a4.566,4.566,0,0,0,.556-1.1A7.5,7.5,0,0,1-2730.3-3754.372Zm-77.4-.715c0-.021,0-.042,0-.063l-.008,0C-2807.706-3755.131-2807.7-3755.109-2807.7-3755.088Zm-267.575,0c.417-.673.693-1.2.516-1.435-.031-.042-.061-.084-.089-.125A2.716,2.716,0,0,1-3075.274-3755.088Zm396.744-1.922c2.393.435,5.2-.161,7.442.983-1.494-1.26-5.215-.961-7.382-1.135C-2678.49-3757.112-2678.51-3757.062-2678.53-3757.01Zm-396.605-.111a3.009,3.009,0,0,1-.273-.733A1.852,1.852,0,0,0-3075.135-3757.122Zm32.758-4.21c-2.069.31-2.076,2.023-2.646,3.632l.049.008c.561-1.6.58-3.3,2.637-3.606-1.719-2.035-2.044-1.594-1.439-4.622l-.052.033C-3044.416-3762.934-3044.084-3763.352-3042.378-3761.332Zm310.024,2.8a.946.946,0,0,1,.066-.265A.52.52,0,0,0-2732.354-3758.537Zm-343.073-1.7c.026.44-.039,1.034-.039,1.616.05-.8.381-1.424-.069-2.154A1.709,1.709,0,0,1-3075.427-3760.239Zm272.561.667q-.018.144-.042.284a21.682,21.682,0,0,0,.869-4.1A33.966,33.966,0,0,1-2802.865-3759.572Zm-180.38.2c-.171-.367-.354-.717-.539-1.1C-2983.618-3760.078-2983.431-3759.722-2983.245-3759.368Zm545.237-.484.659.238a20.17,20.17,0,0,1-2.935-1.655A8.43,8.43,0,0,0-2438.008-3759.853Zm-240.965-.13.718-.26a2.4,2.4,0,0,0-.077-.482c-.219.08-.451.193-.684.3A2.613,2.613,0,0,0-2678.973-3759.983Zm-397.925-4.3c.3.793-.588,1.757-.037,2.324a4.685,4.685,0,0,0,.962.665,5.578,5.578,0,0,0-.776-.584c-.909-.583.317-1.578-.13-2.4l-.062-.113Q-3076.919-3764.336-3076.9-3764.281Zm359.758,2.638q.885-.3,1.74-.676C-2715.937-3762.1-2716.511-3761.879-2717.14-3761.644ZM-2946-3763.438a2.874,2.874,0,0,0-.093.391,4.379,4.379,0,0,0,.115-.465Zm143.245-1.639.052.012c.486-.247,1.03-.511,1.574-.8C-2801.67-3765.6-2802.221-3765.351-2802.759-3765.077Zm-181.452-.514.024-.03-.028.022-.02-.015Zm.368-.489.062-.088c0-.021-.006-.042-.01-.062A1.292,1.292,0,0,1-2983.843-3766.08Zm-94.762-1.252c.224.353.456.709.681,1.071a23.111,23.111,0,0,0-3.464-5.532A37.43,37.43,0,0,1-3078.6-3767.331Zm402.191-.014,6.2-3.125-6.192,2.545Q-2676.407-3767.637-2676.414-3767.345Zm-370.769-3.114a11.191,11.191,0,0,0,.385,2.784,15.51,15.51,0,0,1-.068-5.949q.048-.18.107-.343A9.478,9.478,0,0,0-3047.182-3770.459Zm99.195,2.552v0a2.2,2.2,0,0,0-.536-.026c.042,0,.088-.006.136-.006A2.606,2.606,0,0,1-2947.987-3767.906Zm-54.392-.324c.028-2.671,3.962-3.247,5.842-3.962a7.423,7.423,0,0,1,3.164.1c1.7.259,3.461.519,4.1-.432l0,.005-.008-.013c-.639.949-2.4.69-4.1.431a7.445,7.445,0,0,0-3.165-.1c-1.879.716-5.815,1.292-5.842,3.963a18.24,18.24,0,0,1-3.27-1.189A12.584,12.584,0,0,0-3002.379-3768.231Zm204.312-.24a2.877,2.877,0,0,0,.268-.765A4.1,4.1,0,0,1-2798.067-3768.471Zm90.531-.741c.442-.64.877-1.274,1.345-1.882A19.63,19.63,0,0,0-2707.536-3769.212Zm-228.864-2.417c0-.263,0-.527-.013-.789a2.3,2.3,0,0,0-.044-.382C-2936.425-3772.416-2936.408-3772.025-2936.4-3771.629Zm24.558-.1c.116-.076.235-.157.354-.244C-2911.608-3771.889-2911.726-3771.808-2911.842-3771.725Zm114.189-1.306c-.007.334,0,.687.014,1.048,0-.35-.01-.706-.013-1.077C-2797.653-3773.05-2797.653-3773.041-2797.653-3773.031Zm-186.45,1a10.7,10.7,0,0,0-.145-2.687A23.575,23.575,0,0,1-2984.1-3772.035Zm36.6-.921q-.013.166-.025.348c.013-.134.023-.264.029-.392C-2947.5-3772.986-2947.5-3772.971-2947.5-3772.957Zm-62.382.228a1.216,1.216,0,0,1-.1-.308,6.6,6.6,0,0,0-.271-.946A6.833,6.833,0,0,0-3009.885-3772.729Zm233.2-.415a13.232,13.232,0,0,1-2.113.266A7.474,7.474,0,0,0-2776.68-3773.143Zm6.968-.266-.01.008.021-.006a11.606,11.606,0,0,1-1.016-.635A10.751,10.751,0,0,0-2769.712-3773.409Zm-14.842-.151c.346.016.69.048,1.034.089a7.006,7.006,0,0,0-1.76-.077q.21-.018.441-.018C-2784.746-3773.567-2784.652-3773.565-2784.554-3773.561Zm158.235-.884,6.356.789.074-.126-6.258-.774-3.155-2.344-9.47.39-5.128,1.563-2.763-1.563-5.129-10.548-.328.044,5.139,10.6,2.782,1.577,5.165-1.577,9.535-.395Zm-458.513.76a8.663,8.663,0,0,0-1.627-.161A12.482,12.482,0,0,1-3084.832-3773.684Zm400.685-9.159c2.375,2.876,4.948,5.022,6.365,8.091-.629-2.247-2.009-3.876-4.045-5.905a18.658,18.658,0,0,1-4.157-5.2,2.725,2.725,0,0,0,.053.687C-2685.3-3784.462-2684.787-3783.618-2684.148-3782.844Zm131.149,8.01a4.443,4.443,0,0,0,.243-1.31C-2552.823-3775.7-2552.9-3775.265-2553-3774.833Zm-242.219-1.512a2.676,2.676,0,0,1-1.222,1.457,2.5,2.5,0,0,0,.913-.764,6.167,6.167,0,0,0,.764-2.388C-2794.9-3777.47-2795.049-3776.9-2795.218-3776.346Zm-237.763.411h0a2.236,2.236,0,0,1-.347-.889A2.22,2.22,0,0,0-3032.981-3775.935Zm10.1-.169a.836.836,0,0,0,.7-.079,2.35,2.35,0,0,1-.734.033,1.783,1.783,0,0,1-.18-.025A1.331,1.331,0,0,0-3022.878-3776.1Zm80.825-1.709a3.709,3.709,0,0,0,.518.492q-.1-.085-.192-.171a4.58,4.58,0,0,1-1.194-3.947A4.741,4.741,0,0,0-2942.052-3777.813Zm-6.3-.113a3.631,3.631,0,0,0-.669-.542C-2948.742-3778.253-2948.522-3778.076-2948.35-3777.926Zm335.539-.462.013-.074h-4.275l-.043.074Zm-403.19-.093a2.713,2.713,0,0,1-.356-.871A.939.939,0,0,0-3016-3778.481Zm418.685-.3,4.371-.395,9.139-11.439,4.768-5.128-3.527-10.5-.185.049,3.551,10.548-4.734,5.079-9.074,11.329-4.34.39-9.468-6.641-.024.013Zm-441.5-.284a1.581,1.581,0,0,1-.006-.384h0A1.588,1.588,0,0,0-3038.814-3779.067Zm-2.4-.032c.695-.18,1.438-.04,2.161-.27C-3039.708-3779.189-3040.56-3779.314-3041.214-3779.1Zm24.746-.657c.177.005.129.167.112.4.115-.3.227-.6.335-.908q-.083.122-.173.24a1.3,1.3,0,0,1-.285.269Zm-31.947-3.718a14.164,14.164,0,0,0-.066,1.659c.028-1.036.191-2.166.179-3.239C-3048.332-3784.493-3048.4-3783.928-3048.416-3783.473Zm62.381.354.018-.031c.592-1.015,1.422-2.457,1.047-3.687q.323.029.644.052c-.215-.017-.432-.035-.653-.055C-2984.629-3785.2-2985.6-3784.112-2986.035-3783.119Zm77.753-.956c.09.2.183.388.276.575-.2-.531-.387-.985-.457-1.275a4.12,4.12,0,0,1-.1-.6A3.422,3.422,0,0,0-2908.282-3784.075Zm357.011-.438v0a3.226,3.226,0,0,0-.49.94,10.521,10.521,0,0,1,.739-.963,1.828,1.828,0,0,1,.474-.4h-.014A.927.927,0,0,0-2551.271-3784.513Zm-141.989-.917c.189-.136.38-.269.574-.4A3.857,3.857,0,0,0-2693.259-3785.431Zm-266.789-.836c.422,1.033,1.727.19,2.9-.719-.968.672-1.886,1.279-2.3,1.1a1.745,1.745,0,0,1-.6-.38Zm-92.914.061.055-.01a11.839,11.839,0,0,1,1.36-3.282A10.883,10.883,0,0,0-3052.962-3786.206Zm92.784-.218c-.251-.312-.534-.4-6.2-.409l.557.034c.384.025.979.016,1.646.007.343,0,.705-.009,1.066-.009A6.7,6.7,0,0,1-2960.178-3786.424Zm502.753-1.388c-.82.215-2.176.776-3.591,1.2,1.327-.376,2.642-.9,3.937-1.233q.083-.021.163-.036A2.1,2.1,0,0,0-2457.425-3787.812ZM-2691-3786.646a4.288,4.288,0,0,1,.829-.164A2.6,2.6,0,0,0-2691-3786.646Zm-284.27-.137c-2.485.058-4.51.156-6.616.115C-2979.666-3786.618-2977.481-3786.7-2975.268-3786.784Zm33.891-.053c.02-.023.04-.046.06-.068.087-.1.167-.178.243-.252q-.114.065-.232.124C-2941.329-3786.969-2941.353-3786.9-2941.377-3786.837Zm-74.021-.447c0,.01,0,.019.006.028a.818.818,0,0,1,.068-.231A.218.218,0,0,0-3015.4-3787.283Zm470.281-.165a2.2,2.2,0,0,0-.292-2.146c-.022-.022-.043-.044-.062-.067A11.12,11.12,0,0,0-2545.117-3787.448Zm-408.417-.946-.044-.025a7.237,7.237,0,0,0-.851-.063,1.219,1.219,0,0,0-.411.083,4.022,4.022,0,0,1,.617-.046A4.718,4.718,0,0,1-2953.535-3788.394Zm43.827-.956a12.4,12.4,0,0,1-1.2-1.744l-.017-.033A10.8,10.8,0,0,0-2909.708-3789.35Zm-141.53-.557c-.044.053-.088.108-.131.164a2.607,2.607,0,0,1,.887-.764A1.811,1.811,0,0,0-3051.238-3789.907Zm261.925-.591c.1-.021.223-.041.352-.061A2.061,2.061,0,0,0-2789.313-3790.5Zm-259.966-.071c.009-.026.018-.051.026-.076l-.27.011A1.75,1.75,0,0,1-3049.28-3790.569Zm.039-.12a1.291,1.291,0,0,0-.059-.891A1.973,1.973,0,0,1-3049.241-3790.689Zm360.66-2.928c.7.763,2.088.684,2.884,1.636-.878-1.182-2.99-1.513-4.011-3.088A4.824,4.824,0,0,0-2688.581-3793.618Zm143.41,1.575a12.841,12.841,0,0,0,.554-1.228c.344-1.129-.059-2.461.106-3.625C-2544.917-3795.4-2544.862-3793.586-2545.17-3792.043Zm-238.1-.129a4.548,4.548,0,0,0,.433-.326C-2782.975-3792.386-2783.12-3792.277-2783.272-3792.172Zm-268.962-1.939a2.335,2.335,0,0,1-.9-1.412l-.034.02A2.248,2.248,0,0,0-3052.234-3794.111Zm-65.026-1.4a14.5,14.5,0,0,0-3.393,1.3,17.207,17.207,0,0,0,2.858-.979,4.334,4.334,0,0,1,2.349-.327,5.864,5.864,0,0,0,1.753-.092,9.424,9.424,0,0,1-1.742.042c-.267-.01-.533-.02-.8-.02A6.141,6.141,0,0,0-3117.26-3795.512Zm335.173-.06a2.122,2.122,0,0,1,.362,1.026c-.012-.707-.582-1.328-.681-2.116A2.163,2.163,0,0,0-2782.087-3795.571Zm-143.992.921a2.769,2.769,0,0,0,.525-.637l.043-.076A7.625,7.625,0,0,1-2926.079-3794.65Zm-87-.289a1.008,1.008,0,0,1-.089-.5A.6.6,0,0,0-3013.078-3794.939Zm102.848-.887c.027-.061.055-.122.081-.184-.034-.019-.068-.04-.1-.063A1.161,1.161,0,0,1-2910.23-3795.827Zm-14.593-.784a10.018,10.018,0,0,0,.962-2.489.228.228,0,0,1-.212.115,1.161,1.161,0,0,1-.644-.437A3.656,3.656,0,0,1-2924.823-3796.61Zm14.97-.143c.022-.062.043-.125.063-.188a13.88,13.88,0,0,0,.388-4.7C-2909.5-3800.007-2909.66-3797.873-2909.854-3796.754Zm127.465-.505c.017-.132.033-.26.05-.385C-2782.36-3797.514-2782.376-3797.385-2782.389-3797.259Zm-271.854-.148a4.418,4.418,0,0,0-.039-1.307A9.562,9.562,0,0,1-3054.242-3797.407Zm40.014-.173q-.189-.073-.422-.138l-.055,0C-3014.529-3797.676-3014.37-3797.63-3014.228-3797.58Zm471.3-1.665a3.283,3.283,0,0,0-1.084,1.121,2.464,2.464,0,0,1,.263-.281,10.9,10.9,0,0,0,.822-.84Zm-380.845-.5c.008-.118.012-.235.009-.351a4.744,4.744,0,0,0-.2-.983A10.506,10.506,0,0,1-2923.77-3799.743Zm-131.257-.725.056.055c-.115-.207-.238-.422-.365-.652A1.946,1.946,0,0,0-3055.027-3800.468Zm364.164-.066c.361-.179.726-.344,1.1-.5a2.361,2.361,0,0,1,.191.379,2.387,2.387,0,0,0-.318-.8A5.021,5.021,0,0,0-2690.863-3800.534Zm-86.349-.635a.763.763,0,0,0-.12-.131C-2777.291-3801.258-2777.251-3801.215-2777.212-3801.17Zm-307.49-.106a7.574,7.574,0,0,1-.365-.794c-.444-1.115.65-2.167,1.012-3.306C-3084.8-3803.924-3085.786-3802.774-3084.7-3801.276Zm303.045-.66a1.528,1.528,0,0,0-.186-.791A3.02,3.02,0,0,1-2781.658-3801.936Zm-332.62-.664a.77.77,0,0,0,.111.6.869.869,0,0,1-.045-.727,1.088,1.088,0,0,1,.167-.3A.955.955,0,0,0-3114.278-3802.6Zm36.711.4a2.691,2.691,0,0,0-.949-.637A3.717,3.717,0,0,1-3077.567-3802.2Zm150.656-.529c-.031-.052-.057-.1-.078-.131-.032-.053-.063-.1-.092-.155Q-2927-3802.876-2926.911-3802.731Zm2.726-.326a.451.451,0,0,0-.044.229,1.269,1.269,0,0,1,.053-.241Zm-131.83-.8a2.244,2.244,0,0,0,.048.506c-.011-.194-.022-.387-.043-.574C-3056.01-3803.906-3056.012-3803.883-3056.014-3803.86Zm133.83.073a3.343,3.343,0,0,0,1.272-.212A5.86,5.86,0,0,1-2922.185-3803.787Zm-188.8-.732a1,1,0,0,0,.229-.408A1.682,1.682,0,0,1-3110.986-3804.519Zm325.549-.152c.1,0,.205-.009.311-.017l-.08,0A1.328,1.328,0,0,0-2785.437-3804.671Zm324.845-.364a5.567,5.567,0,0,1,.376-.532,3.487,3.487,0,0,0-.315.207C-2460.547-3805.254-2460.567-3805.146-2460.592-3805.035Zm-77.744-2.745a16.876,16.876,0,0,0-1.242,2.707c.2-.434.412-.872.633-1.312.621-1.242,1-2.536,2.521-2.608.089,0,.225,0,.394,0-.085-.006-.17-.009-.254-.009A2.243,2.243,0,0,0-2538.336-3807.781Zm-380.6,2.591a1.054,1.054,0,0,0-.319-.012l-.063.01a1.349,1.349,0,0,1,.178-.011A1.469,1.469,0,0,1-2918.937-3805.19Zm-7.593-.3c.263-.129.568-.252.9-.386l0-.008A5.346,5.346,0,0,0-2926.531-3805.486Zm-184.159-.617c-.118-1.2-.646-2.448-.4-2.829h-.111C-3111.366-3808.025-3110.854-3807.037-3110.689-3806.1Zm7.706-.239a1.03,1.03,0,0,1-.17-.443A.641.641,0,0,0-3102.983-3806.342Zm176.934-.692a7.887,7.887,0,0,0-.527-1.374A10.824,10.824,0,0,1-2926.05-3807.034Zm-207.27-.377c1.406.457,1.305-3.084,2.892-3.636-2.359.169-.99,2.169-2.432,3.191a1.838,1.838,0,0,1-.924.294C-3133.641-3807.517-3133.49-3807.466-3133.32-3807.411Zm345.3-1.6a3.685,3.685,0,0,0,.229,1.146q-.06-.257-.108-.524c-.033-.374-.062-.724-.085-1.051Q-2787.995-3809.232-2788.015-3809.013Zm-117.365-2.465c-.771,1.086-1.614,2.016-2.321,2.985.379-.4.833-.839,1.374-1.371a9.3,9.3,0,0,0,2.492-6.753A9.563,9.563,0,0,1-2905.381-3811.478Zm-199.5,2.735a1.372,1.372,0,0,0-.194-.08C-3105.011-3808.8-3104.947-3808.771-3104.882-3808.743Zm407.4-.5c.749.748,1.848.478,2.862.207a5.976,5.976,0,0,1,1.457-.278,3.267,3.267,0,0,1,1.777.448,1.106,1.106,0,0,0-.448-.428,3.831,3.831,0,0,0-3.071-.045c-.986.267-1.916.534-2.691-.021Zm233.731-1.3q.355.272.677.535a12.4,12.4,0,0,0-1.145-.924C-2464.073-3810.8-2463.918-3810.673-2463.751-3810.545Zm-377.009-.148a6.271,6.271,0,0,1-.786-.115,5.22,5.22,0,0,0-1.488-.1,11.048,11.048,0,0,1-1.372.043A11.82,11.82,0,0,0-2840.76-3810.693Zm-5.885-.447c.115,0,.239.013.371.025-2.016-.487-3.558-1.581-5.559-2.551C-2850.06-3812.574-2849.151-3811.234-2846.644-3811.14Zm382.066-.144c-.549-.829-1.061-1.608-1.543-2.329A9.1,9.1,0,0,0-2464.578-3811.284Zm-374.337-.647a15.579,15.579,0,0,0,1.135-1.539C-2838.177-3812.977-2838.544-3812.461-2838.915-3811.931Zm306.835-2.871c-.011.421.093,1.494.116,2.624.18-1.609.187-3.291.411-4.8.034-.227.078-.445.13-.658A7.92,7.92,0,0,0-2532.079-3814.8Zm-468.629,2.581c-.021-.131-.044-.261-.068-.39a2.2,2.2,0,0,0-.335-.7A4.684,4.684,0,0,1-3000.708-3812.221Zm127.683-2.858a3.732,3.732,0,0,0,1.885,1.822c.076.025.148.045.219.06a8.953,8.953,0,0,1-2.892-3.578,9.754,9.754,0,0,0-2.232-3.212A30,30,0,0,1-2873.025-3815.079Zm-211.707.7c.172.338.323.654.445.963a14.487,14.487,0,0,0-2.007-3.785A25.518,25.518,0,0,1-3084.732-3814.381Zm296.412.626a3.013,3.013,0,0,0-.152-.463l-.027-.018C-2788.435-3814.084-2788.375-3813.925-2788.32-3813.755Zm-65.915-.569c.18.293,1.1.226,1.635.3q-.25-.109-.51-.213a12.348,12.348,0,0,1-2.163-1.237A4.858,4.858,0,0,1-2854.235-3814.324Zm-291.634.115a2.542,2.542,0,0,1,.7-.71A1.363,1.363,0,0,0-3145.869-3814.209Zm338.258-.389a8.462,8.462,0,0,0,3.25-2.792c-.377.33-.751.689-1.129,1.087-2.645,2.786-4.338,2.018-7.221.781C-2811.116-3814.7-2809.317-3813.973-2807.611-3814.6Zm-194.129.143a.616.616,0,0,1,.018-.377C-3001.816-3814.756-3001.828-3814.659-3001.74-3814.455Zm10.05-1c-.01-.05-.019-.1-.027-.146.008.047.017.1.027.146Zm-143.23-.027a1.158,1.158,0,0,1-.439-.71,1.28,1.28,0,0,0,.1.491c0,.012,0,.022-.023.03h.046C-3135.035-3815.557-3134.944-3815.5-3134.921-3815.48Zm-6.2-.174,3.662-.01c-.569-.013-1.212-.026-1.883-.026C-3139.929-3815.689-3140.532-3815.68-3141.126-3815.654Zm278.914-1.761a13.639,13.639,0,0,0-2.121,1.543c2.16-1.04,3.786-2.329,6.356-1.294a5.547,5.547,0,0,0-2.484-.693A3.688,3.688,0,0,0-2862.212-3817.415Zm-251.942.6c.144-.048.29-.1.434-.167a10.012,10.012,0,0,1-2.093.519c-2.484.357-5.037-.818-7.114-1.993-.988-.559-1.868-1.118-2.581-1.511C-3121.916-3817.726-3118.311-3815.427-3114.154-3816.81Zm177.287-1.058-.006,0a2.738,2.738,0,0,1-3.065-.226l-.01.027.007-.017A2.747,2.747,0,0,0-2936.867-3817.868Zm-151.7.3a2.368,2.368,0,0,1-.751-.653A1.029,1.029,0,0,0-3088.565-3817.567Zm184.825-.118a4.076,4.076,0,0,1,.61-1.372A2.606,2.606,0,0,0-2903.74-3817.686Zm-226.823-.436a5.654,5.654,0,0,0,1.442-.183,1.75,1.75,0,0,0,.687-.366A3.668,3.668,0,0,1-3130.564-3818.122Zm132.839-1.437a1.3,1.3,0,0,1-.02-.287l0,.006A1.291,1.291,0,0,0-2997.725-3819.558Zm-121-.159a1.478,1.478,0,0,0,.208.07,2.19,2.19,0,0,1-.922-.888A1.358,1.358,0,0,0-3118.725-3819.718Zm424.38-.755a10.967,10.967,0,0,1-.447-1.108A6.124,6.124,0,0,0-2694.345-3820.473Zm-104.544-.162c.456-.079.479-.21.5-.4A2.07,2.07,0,0,1-2798.889-3820.635Zm-102.555-.188c.148-.126.3-.252.45-.378a8.911,8.911,0,0,1,5.063-1.863A7.985,7.985,0,0,0-2901.444-3820.823Zm-230.744-.234-8.463-.044C-3137.843-3820.937-3135-3821.04-3132.188-3821.057Zm.745-.005a.532.532,0,0,0,.374-.323A1.237,1.237,0,0,1-3131.443-3821.062Zm142.186-.329a3.125,3.125,0,0,0-.346-1.095h-.005A3.107,3.107,0,0,1-2989.258-3821.391Zm3.286-.118.021-.031c-.069-.031-.156-.065-.258-.1C-2986.128-3821.6-2986.049-3821.555-2985.971-3821.509Zm-105.348-.046-.048-.1a2.012,2.012,0,0,1,.156-1.381Q-3092.365-3822.62-3091.32-3821.554Zm-30.458-.168-.056.02a3.808,3.808,0,0,0,.439-.1,3.986,3.986,0,0,1,.413-.1A2.17,2.17,0,0,0-3121.778-3821.723Zm324.593-.638a2.641,2.641,0,0,0-.588.516c1.875-1.2,3.142-.961,4.113-.091-.135-.255-.257-.515-.368-.779-.437-.011-.914-.054-1.387-.054A3.193,3.193,0,0,0-2797.185-3822.36Zm-83.036.218c-.466-.124-.954-.229-1.463-.321a5.014,5.014,0,0,1-.565-.137A13.511,13.511,0,0,0-2880.221-3822.143Zm-250.036-.833c-.023.024-.045.048-.065.072a1.021,1.021,0,0,1,.829-.324.792.792,0,0,0-.212-.032A.755.755,0,0,0-3130.258-3822.976Zm5.885-.8a1.733,1.733,0,0,1,.483.387,1.333,1.333,0,0,0-.758-.5A1.881,1.881,0,0,1-3124.372-3823.781Zm-2.7.3.154-.063c.236-.1.472-.2.709-.275A4.971,4.971,0,0,0-3127.069-3823.479Zm36.018-5.632c.056.557.281,1.422.464,2.334a5.576,5.576,0,0,0-.594-3.027A3.746,3.746,0,0,1-3091.052-3829.111Zm144.049,2.136c-.081-.3-.139-.6-.187-.889A3.844,3.844,0,0,0-2947-3826.975Zm151.925-.241c-.194-1.592-.306-3.2-.605-4.714C-2795.98-3830.826-2795.583-3829.007-2795.077-3827.216Zm278.625-.568a84.646,84.646,0,0,0,3.611-10.292l-.044-.072a83.953,83.953,0,0,1-3.608,10.3Zm-12.318-.556q.05-.168.1-.32-.049.112-.1.232C-2528.766-3828.4-2528.768-3828.368-2528.769-3828.339Zm48.9-.317.135.06c-.406-.225-.823-.426-1.245-.621A10.507,10.507,0,0,0-2479.867-3828.656Zm-210.665-.116.088-.071a7.327,7.327,0,0,1-1.478-2.941A6.4,6.4,0,0,0-2690.532-3828.773Zm162.582-1.129a1.871,1.871,0,0,1,.159-.14A1.4,1.4,0,0,0-2527.95-3829.9Zm5.013-.279c.785-.009,1.193-.983,1.8-1.512-.849.562-.9,1.431-2,1.512Zm-569.751-1.577.043.038a1.857,1.857,0,0,1-.349-1.2A1,1,0,0,0-3092.689-3831.758Zm297.143-.534a1.74,1.74,0,0,0-.083.193,1.52,1.52,0,0,1,.739-.689A1.077,1.077,0,0,0-2795.546-3832.292Zm298.149.107a2.916,2.916,0,0,1,1.664-1.083,2.8,2.8,0,0,0-1.682,1.019C-2497.408-3832.226-2497.4-3832.2-2497.4-3832.186Zm-7.644-.1a4.464,4.464,0,0,1-1.446-.314A3.378,3.378,0,0,0-2505.041-3832.289Zm7.558-.152a4.083,4.083,0,0,0-.613-1.284A10.7,10.7,0,0,1-2497.483-3832.44Zm-4.317-.44a3.5,3.5,0,0,0,.948-.573,1.615,1.615,0,0,0,.308-.432A7.2,7.2,0,0,1-2501.8-3832.88Zm-469.375-.151.069-.035a14.415,14.415,0,0,0,1.4-.844C-2970.2-3833.59-2970.685-3833.3-2971.175-3833.031Zm471.832-2.219c-.326-.32-.5-.416-.3-.1a.153.153,0,0,1,.021.054.358.358,0,0,1,.073-.008A.5.5,0,0,1-2499.343-3835.25Zm-11.5-.568a2.443,2.443,0,0,0,.6.227,3.412,3.412,0,0,1-1.539-1.024A3.443,3.443,0,0,0-2510.839-3835.818Zm-281.17-1.057c-.12.32-.245.639-.38.952l0,0c.594-.442.875-1.668,1.1-2.771Q-2791.665-3837.79-2792.009-3836.874Zm-294.1-10.782c-3.118,1.728.416,9.656-4.851,10.932a2.854,2.854,0,0,0,2.3-1.394c1.417-1.818.781-5.73,1.474-8,.436-1.434,1.3-1.812,2.346-1.575a2.281,2.281,0,0,0-.667-.112A1.233,1.233,0,0,0-3086.11-3847.657Zm137.09,9.723c.041-.219.077-.434.1-.643q-.172-.066-.342-.134A1.4,1.4,0,0,1-2949.02-3837.933Zm.151-1.1c.011-.157.015-.31.011-.457C-2948.868-3839.391-2948.869-3839.244-2948.869-3839.029Zm4.8-.116a26.323,26.323,0,0,0-3.018-.121A23.136,23.136,0,0,0-2944.07-3839.145Zm-4.562-.441c-.073-.039-.124-.061-.159-.052Zm-7.895-.449a.516.516,0,0,0,.251.122l-.042-.03a6.128,6.128,0,0,0-.561-.373A3.584,3.584,0,0,1-2956.527-3840.036Zm-121.154-1.062c.888-2.435,2.159-4.158,4.118-4.6-1.809.317-3.172,1.683-4.2,4.431C-3077.731-3841.2-3077.7-3841.146-3077.681-3841.1Zm548.415-1.323c.994-1.394,1.138-3.2,1.518-4.868A37.88,37.88,0,0,1-2529.265-3842.42Zm-388.757-1.731c1.813.212,1.428-.187,1.214-.6a3.97,3.97,0,0,1-1.591.562Q-2918.211-3844.173-2918.022-3844.151Zm4.248-.82a4.02,4.02,0,0,0,2.443.4,2.877,2.877,0,0,1-.593-.049c-.213-.036-1.19-.286-2.195-.474C-2914-3845.051-2913.888-3845.011-2913.775-3844.971Zm-149.435-.017a4.1,4.1,0,0,0,2.975-2.9q-.049-.13-.091-.27A4.143,4.143,0,0,1-3063.21-3844.988Zm-6.244-.089-.1-.038Zm45.175-1.3c1.041,0,2.176-.047,3.329-.089l-10.42.012C-3029-3846.419-3026.629-3846.38-3024.278-3846.38Zm8.7-.043c1.729.177,1.492-2.335,1.542-4.081-.144,2.084-.423,3.795-1.059,4.029h-1.092Q-3015.878-3846.453-3015.579-3846.423Zm489.477-6.1a32.523,32.523,0,0,0-1.418,4.373c.72-2.363,1.711-4.661,2.559-6.981a3.049,3.049,0,0,0,.144-.724A34.89,34.89,0,0,1-2526.1-3852.526Zm-487.416-4.967c1.11,2.834-.352,3.693-.456,5.877-.007.156-.015.312-.024.466v-.01c.216-1.9,2.065-5.553.08-6.814a7.964,7.964,0,0,1-1.387-1.083C-3014.524-3858.232-3013.63-3857.78-3013.517-3857.492Zm232.117,3.4c.458-.533.909-1.058,1.347-1.576l.1-.121Q-2780.676-3854.938-2781.4-3854.089Zm4.65-5.549c-.982,1.242-2,2.451-3.032,3.655,1.6-1.863,3.274-3.611,4.639-5.494C-2775.709-3860.848-2776.276-3860.238-2776.75-3859.638Zm251.623-1.285a3.79,3.79,0,0,0,.27,1.967c-.046-.89-.1-1.834-.1-2.746C-2525.027-3861.423-2525.084-3861.16-2525.127-3860.923Zm-608.11,1.876c-.664.012-1.383-.007-2.167-.063A10.864,10.864,0,0,0-3133.238-3859.047Zm6.325-1.412c-.261.12-.534.24-.823.356a7.448,7.448,0,0,0,1.345-.6C-3126.56-3860.624-3126.734-3860.542-3126.913-3860.459Zm9.672-.192a12.211,12.211,0,0,0-2.857-.964A18.385,18.385,0,0,1-3117.241-3860.652Zm100.774-2.85c.03-.426.059-.87.063-1.339l-8-107.115,20.236.011c-8.745-6.56-17.586-12.994-26.591-19.226q-8-5.544-16.067-10.957v.03c14.423,9.705,28.581,19.7,42.5,30.12h-20.211Zm244.363-9.5c-.009.321-.012.651-.01.988q.087-2.108.164-4.217C-2772.014-3875.154-2772.073-3874.078-2772.1-3873Zm.406-9.555c.112-2.538.245-5.074.424-7.607q.048-.682.084-1.4C-2771.476-3888.567-2771.685-3885.568-2771.7-3882.556Zm-130.286-9.249c.15-1.746.643-2.682,2.1-3.354l-.544.115c-.249.052-.812.219-1.58.439l.1-.014Q-2901.967-3893.22-2901.984-3891.805Zm-12.006-1.42a1.509,1.509,0,0,1-.747-1.481A1.294,1.294,0,0,0-2913.99-3893.225Zm37.114-12.269q-.065.094-.141.2.415-.433.833-.841.549-.534,1.094-1.073Q-2875.99-3906.357-2876.877-3905.494Zm-49.92-3.291a.608.608,0,0,0,.515-.079,5.923,5.923,0,0,1-.724.043Zm2.022-.03.047.024a1.032,1.032,0,0,0-.551-.249C-2925.137-3908.985-2924.972-3908.912-2924.775-3908.814Zm-5.53-1.4a4.262,4.262,0,0,0,.736.594,5.494,5.494,0,0,1-1.253-1.3A3.039,3.039,0,0,0-2930.3-3910.215Zm158.777-5.259a22.984,22.984,0,0,0,1.777,1.7l-.061-.07c-.536-.617-1.21-1.1-1.753-1.711a1.5,1.5,0,0,1-.263-.4A1.6,1.6,0,0,0-2771.528-3915.474Zm-161.656,1.224a6.961,6.961,0,0,0-.913-.375C-2933.783-3914.511-2933.475-3914.39-2933.184-3914.251Zm269.3-.062c-.1-6.025-.223-12.063-.425-18.062h.007l-.095-3.579Zm-107.821-4.332a1.414,1.414,0,0,1,.092.384,1.333,1.333,0,0,0-.087-.385q-.078-.2-.166-.4Q-2771.78-3918.846-2771.7-3918.645Zm-169.145-4.6q-.255-.169-.509-.321Q-2941.1-3923.412-2940.847-3923.249Zm-1.71-1.058q-.587-.373-1.164-.764C-2943.37-3924.818-2942.976-3924.565-2942.557-3924.307Zm166.122-5.577a17.133,17.133,0,0,0-.027-2.261,46.031,46.031,0,0,0-.882-5.12C-2776.977-3934.817-2776.668-3932.365-2776.435-3929.884Zm-64.958-3.937c3.536-2.3,7.081-4.557,10.581-6.789,3.559-2.269,7.016-4.69,10.515-7.048C-2827.383-3943.131-2834.456-3938.567-2841.393-3933.82Zm251.636-.478a.888.888,0,0,0-.127-.5C-2589.835-3934.636-2589.793-3934.469-2589.757-3934.3Zm-195.969-7q.372-.256.751-.5l-1.833.877a2.394,2.394,0,0,1-1.9-.491C-2787.634-3940.275-2787.183-3940.294-2785.726-3941.3Zm-8.76-5.295q-.555-.374-1.121-.7Q-2795.035-3946.956-2794.486-3946.59Zm-5.4-2.5q.409.112.808.242c-.921-.323-1.868-.6-2.846-.853C-2801.23-3949.479-2800.549-3949.27-2799.89-3949.09Zm-14.888-2.087-.193.124a8.979,8.979,0,0,1,3.792-.754,7.755,7.755,0,0,1-1.637-.742,3.306,3.306,0,0,1-.884-.847C-2813.249-3952.428-2813.188-3952.079-2814.778-3951.177Zm-17.511-14.683c.936,1.009,1.961.613,2.987.216a5.668,5.668,0,0,1,1.394-.408c-1.455.114-3.014,1.644-4.374.175a13.075,13.075,0,0,1-1.221-1.61A9.41,9.41,0,0,0-2832.289-3965.86Zm-214.447-41.725h.021l.015-.32Q-3046.718-4007.745-3046.736-4007.585Zm209.341-5.092a15.706,15.706,0,0,1,.444,1.893,8.469,8.469,0,0,0-.465-2.019c-.03-.084-.059-.169-.086-.254Q-2837.452-4012.871-2837.395-4012.677Zm-208.84-5.582c0,.059.008.118.012.177l.036-.762a4.152,4.152,0,0,1-.047-.427A6.465,6.465,0,0,0-3046.234-4018.259Zm10.475-10.479c.254-.219.518-.431.787-.625A6.327,6.327,0,0,0-3035.759-4028.738Zm12.06-3.789a11.593,11.593,0,0,1-1.325-.262A6.517,6.517,0,0,0-3023.7-4032.527Zm182.634-8.736h0v-.006A.065.065,0,0,1-2841.066-4041.263Zm3.305-1.681a7.648,7.648,0,0,0,1.5-1.214A11.059,11.059,0,0,1-2837.76-4042.945Zm-151.652-13.517q.116-.117.252-.241l-.01,0Q-2989.3-4056.582-2989.413-4056.461Zm-.982-1.052c-.686-1.259,1.417-3.228,3.2-3.078,2.994.25,5.756-.817,6.817-3.619,1.3-3.418,7.388-2.73,12.662-2.043,3.007.391,5.75.783,7.186.415l-.013-.006c-1.438.365-4.175-.026-7.176-.417-5.275-.687-11.369-1.375-12.663,2.043-1.062,2.8-3.826,3.869-6.818,3.618-.064-.005-.129-.008-.194-.008C-2989.134-4060.608-2991.069-4058.727-2990.4-4057.513Zm29.777-8.365a4.192,4.192,0,0,1-.726-.421A2.438,2.438,0,0,0-2960.618-4065.878Zm110.819-2.448q-.392-.271-.833-.533C-2850.355-4068.68-2850.077-4068.5-2849.8-4068.326Zm31.279-2.869a2.749,2.749,0,0,0-.418-1.126A9.023,9.023,0,0,1-2818.52-4071.195Zm-.887-2.808c.062-.654.112-1.308.159-1.963A10.5,10.5,0,0,0-2819.408-4074Zm-41.818-19.969c.121-.083.239-.166.354-.253a6.345,6.345,0,0,0,.816-.737C-2860.45-4094.624-2860.843-4094.294-2861.226-4093.972Zm-103.808-3.265q.1-.093.222-.187l-.011,0A2.126,2.126,0,0,0-2965.034-4097.237Zm111.021-14.4a7.611,7.611,0,0,0-.223-1.227Q-2854.1-4112.241-2854.014-4111.639Zm-1.685-12.306c1.714.369,2.033,1.586,1.881,3.073.209-1.443-.07-2.7-1.864-3.092Zm1.749-1.517a8.644,8.644,0,0,0,2.672-2.544,1.4,1.4,0,0,0,.107-.246A9.007,9.007,0,0,1-2853.95-4125.461Zm418.62,822.665c-2.393-.53-3.7-3.183-6.1-3.8-.991-.252-2.036-.148-3.016-.454-.667-.208-2.985-2.286-.308-.733-2.124-1.746-4-2.554-4.693-5.441a26.954,26.954,0,0,0-2.472-5.713c-1.06-2.2-1.314-8.249.31-10.112,1.656-1.9-.018-2.161-.621-3.834-.656-1.815-.634-3.578-1.908-5.147-2.609-3.208-.753-7.687-1.624-11.361h0c.59-2.445,2.753-4.63,2.953-7.014.242-2.867.832-2.916,3.33-3.786,2.079-.726,1.54-3.457,2.2-5.094a42.019,42.019,0,0,1,3.508-5.987c1.107-1.8,2.434-3.556,3.452-5.4.956-1.729-1.071-2.227-.575-3.837.691-2.24,1.491-3.275.087-5.573-1.305-2.141-1.159-3.672-1.144-6.085.011-2.593-1.88-4.789-2.1-7.426-.194-2.321.863-5.915-.35-7.906-1.756-2.888,2.822-7.348,4.251-9.74.853-1.433,2.113-3.463,1.694-5.224.476.471-.01-3.88.561-4.413.665-.622,1.781-.511,2.881-.4a5.425,5.425,0,0,0,2.27-.063c1.532-.57,2.543-2.145,3.861-3.057a11.76,11.76,0,0,1,1.315,1.986c.151-1.372,2.77-3.17,2.77-.886.807-.75.4-2.557,1.472-3.085.852-.417,3.291-.174,3.8.669.082-2.253,2.2-2.29,2.477-.126.221,1.718,1.492,1.469,2.71,1.547-.25-.982-1.352-.832-1.668-1.649-.224-.587.286-1.373.176-2-.219-1.229,1.914-2.353,2.708-2.893,1.188-.811,2.443-2.757,4-2.8,2.718-.068.784,3,.6,4.062.888-.719,3.652-1.042,2.869-2.574-.4-.784-1.41-1.862-1.218-2.823.278-1.387,2.2-2.023,2.86-3.2.683-1.209.287-2.378,1.989-2.751.333,1.743-1.306,3.043-.993,4.739,2.369-.733,2.221-3.742,3.952-5.081,1.238-.955,3.311-.772,2.867,1.23,1.291-2.574-1.964-1.946-2.818-3.55-1.606-3.022,2.466-3.177,2.712-4.49.244,2.689,1.215-1.05.672-2.415-.606-1.518-1.2-2.621-1.027-4.315.47-4.738,3.756,1.964,4.65,1.99.322-1.042.353-2.3,1.079-3.181a1.112,1.112,0,0,1,1.048-.5c.321.018.428.036.182-1.154,3.575-.092,3.532-1.945,4.405-4.845.594-1.967,2.508-6.329-.444-7.811,1.57.034,4.985-3.023,4.77-4.679-.348-2.668,1.464-1.63,2-.592.308.6.186,1.2-1.03,1.084a3.068,3.068,0,0,0,.106,1.207c1.912-1.163,2.4,2.32,3.155,3.244.793.97-.588,1.53.3,2.418.546.545.923.723.63,1.614.352-.277.714-.535,1.088-.779a53.093,53.093,0,0,1,4.449,19.365c.128,3.568.029,6.936,1.09,10.4.581,1.887,2,2.948,1.606,5.076-.277,1.473-1.9,8.189-4.391,7.316-2.224-.78-1.434-5.548-3.735-6.527-2.682-1.14-1.569,7.229-1.589,8.308-.023,1.422,1.8,1.251,1.54,2.735-.2,1.1.047,2.182-.06,3.282-.115,1.176-1.154,4.16-2.1,4.67-4.805,2.594-2.1,8.36-2.9,12.312-1.067,5.3-2.922,9.5-4.971,14.442-1.4,3.381-2.1,7.007-3.39,10.437-.193.513-1.066,3.613-1.837,3.615.652,1.63-.59,3.9-1.243,5.329-2.242,4.906-3.273,10.087-5.084,15.155-2.233,6.252-4.834,12.014-6.563,18.466-1.216,4.533-2.747,8.8-4.167,13.22-.771,2.391-2.308,4.414-2.979,6.906a32.808,32.808,0,0,1-1.814,5.294c-.584,1.258-1.5,3.069-3.025,3.361a19.574,19.574,0,0,0-3,1.262,4.3,4.3,0,0,1-2.088.04,4.888,4.888,0,0,0-2.075.01c-3.514,1.031-7.454,5.6-11.293,5.6A4.6,4.6,0,0,1-2435.329-3302.8Zm-108.75-53.732a8.883,8.883,0,0,1-.551,3.423A4.461,4.461,0,0,1-2544.079-3356.528Zm10.412-36.091q2.047-.215.66,1.1Zm-495.857-29.552c9.542,0,9.542,14.314,0,14.314S-3039.075-3422.17-3029.524-3422.17Zm655.423,1.8v.658c-.646,1.133-.953,2.422-1.652,3.531C-2376.453-3417.77-2374.768-3419.148-2374.1-3420.374Zm-52.579-55.3c9.321,0,9.321,13.982,0,13.982S-2436.008-3475.675-2426.68-3475.675Zm35.113,11.827c-1.568,0-1.807-1.759-.733-2.645.653.67,1.309,1.687.765,2.645Zm-58.179-21.768a1.571,1.571,0,0,1-.021-1.373c.472-1.206-.454-3.987,1.656-3.923a9.787,9.787,0,0,1,.315,2.454,6.964,6.964,0,0,1,4.6-1.554c6.012,0,8.146,5.816,6.4,9.946,1.419.028,2.474.068,1.546,2.47a10.663,10.663,0,0,0-1.938-1.682,6.614,6.614,0,0,1-6.011,3.247C-2449.04-3476.032-2451.223-3481.516-2449.746-3485.615Zm-38.165-53.729c.73,1.984-1.234,2.68-2.416,3.744C-2490.589-3537.669-2488.582-3537.749-2487.911-3539.345Zm-4.31-16.712c-2.176-1.888-2.569-2.871-3-5.62-.363-1.365,1.167-2.454,1.529-3.64a9.639,9.639,0,0,1,.992,5.948c1.264-1.052,1.75.249,1.712,1.549-.028.968-.345,1.936-.849,1.936A.6.6,0,0,1-2492.221-3556.057Zm3.545-15.648q-.539-.407-1.115-.764c1.616-.174.408-1.349.228-2.751.036-.367.072-.734.108-1.1,2.31.93,2.625,3.33,1.5,5.8-.3.655-.707.909-1.053.909C-2489.767-3569.614-2490.235-3570.82-2488.676-3571.705Zm-116.656,1.755.006.021c0,.009,0,.018,0,.028Zm50.579-57.584.087.055-.02.015Zm-293.275-4.474c.036-.367.071-.733.108-1.1a1.428,1.428,0,0,1,.336,1.971C-2847.732-3631.427-2847.879-3631.718-2848.028-3632.008Zm-27.4-14.448c-6.517-2.5-5.579-13.665,2.812-13.665,9.438,0,9.438,14.156,0,14.156a8.386,8.386,0,0,1-1.642-.155,3.113,3.113,0,0,1,.172,1.9,5.013,5.013,0,0,1-2.51,2.634C-2876.892-3643.409-2877.728-3645.637-2875.431-3646.456Zm9.2-17.357a2.209,2.209,0,0,1-.123,2.311A1.345,1.345,0,0,1-2866.231-3663.813Zm11.722-22.395c.841-1.026,1.729-1.205,2.23-2.6a2.934,2.934,0,0,1,2.282-2.214c3.333-.687-.433,6.433-1.242,7.388C-2851.85-3683.954-2855.477-3685.02-2854.509-3686.208Zm-13.552-14.914c1.133.917.633,1.778-.765,1.872A2.913,2.913,0,0,1-2868.061-3701.122Zm1.039,1.1a4.905,4.905,0,0,1,2.2-.548l-1.1.66Zm-235.952-41.277.321-.77a9.182,9.182,0,0,0,1.309-.055,4.286,4.286,0,0,1,2.69.325c.664.42.462,1.234.191,1.821A28.866,28.866,0,0,1-3102.974-3741.3Zm-23.843-44.9,1.208.11a1.963,1.963,0,0,0-.55,2.312C-3127.414-3783.981-3127.476-3785.359-3126.816-3786.2Zm-11.836-1.659a5.745,5.745,0,0,0-1.314.771C-3141.771-3788.475-3139.535-3789.712-3138.653-3787.856Zm7.525-1.759q1.593-.713,1.1.88C-3130.392-3789.028-3130.761-3789.319-3131.128-3789.615Zm-3.044-1.205a3.422,3.422,0,0,1-1.207,1.871A1.717,1.717,0,0,1-3134.172-3790.82Zm-4.557-1.767.444-1.1q.6.079,1.208.112c-.11.685-.464,1.159-1.022,1.159A1.406,1.406,0,0,1-3138.729-3792.587Zm-4.128-.551a4.579,4.579,0,0,1,1.1-.879c.036.292.072.587.107.879Zm3.073-5.175a11.992,11.992,0,0,1,1.652-.22c.247.845-.219,1.311-.719,1.311C-3139.282-3797.222-3139.738-3797.567-3139.785-3798.312Zm-1.7-.649q1.956.351.443,1.1Q-3141.26-3798.411-3141.481-3798.961Zm651.66-49.971c1.537,1.261.648-1.335.563-2.2,1.257-.763,1.278,1.391,1.5,2.063.572,1.734,2.776.1,3.559,1.787-.415.031-.953.067-1.533.067C-2487.362-3847.215-2489.33-3847.495-2489.821-3848.933Zm-648.694-55.031a5.771,5.771,0,0,1-.994,3.412C-3140.162-3901.791-3139.4-3903.118-3138.514-3903.963Zm-7.574-12a.045.045,0,0,0,0-.01s0,.006,0,.01Zm-4.62-93.21a8.493,8.493,0,0,1-1.315,2.313C-3153.669-4007.95-3152.351-4009.679-3150.708-4009.169Zm52.985,1.995h-.152C-3097.729-4007.346-3097.687-4007.332-3097.724-4007.174Zm-27.465-6.324c4.319-.955,3,4.22.386,5.435C-3127.516-4008.45-3127.982-4012.879-3125.188-4013.5Zm-14.157-2.711a59.811,59.811,0,0,0,9.023-3.081c-1.146,2.453-4.063,6.933-6.715,7.924C-3137.941-4012.918-3138.429-4014.664-3139.346-4016.209Zm-3.411,2.086c1.8.353.69,2.246-.551,2.422C-3144.423-4012.391-3144.479-4014.462-3142.756-4014.124Zm31.336,1.211c3.256-1.08,3.685-6.071,6.036-8.318,1.486-1.419.7,4.141.478,4.7-1,2.567-3.75,2.516-5.52,4.276Zm-38.645-9.692c2.354-.469,1.935,2.78,1.1,3.962-.333.22-.662.441-.995.661C-3150.112-4019.1-3152.176-4022.182-3150.065-4022.6Zm45.42-.544c.456-1,4.009-5.633,4.833-3.35.69,1.916-2.768,2.8-3.733,3.791Zm-21.683-13.626c9.322,0,9.322,13.982,0,13.982S-3135.656-4036.775-3126.328-4036.775Zm537.954-18.769c.118.1.236.193.353.275A2.508,2.508,0,0,1-2588.374-4055.544Zm-547.741-25.79c9.321,0,9.321,13.982,0,13.982S-3145.444-4081.334-3136.115-4081.334Zm308.969-5.64c-.267.033-.526.067-.666-.232-.823-1.75-.015-2.312,1.462-2.292,3.236.043,1.213,1.973.068,3.283C-2826.388-4087.068-2826.775-4087.021-2827.146-4086.974Zm-150.227-20.144a5.369,5.369,0,0,1,.5.574A4.053,4.053,0,0,1-2977.373-4107.118Z" transform="translate(3154 4135)"/>
</svg>
